<svg width="35" height="35" viewBox="0 0 35 35" fill="none" xmlns="http://www.w3.org/2000/svg">
<path d="M31.7084 17.9826L18.5834 3.39931C18.0306 2.78389 16.969 2.78389 16.4163 3.39931L3.29127 17.9826C3.10235 18.1921 2.97835 18.4518 2.93434 18.7304C2.89032 19.009 2.9282 19.2944 3.04336 19.5518C3.27669 20.0783 3.79877 20.4166 4.37481 20.4166H7.29148V30.6249C7.29148 31.0117 7.44513 31.3826 7.71862 31.6561C7.99211 31.9296 8.36304 32.0833 8.74981 32.0833H13.1248C13.5116 32.0833 13.8825 31.9296 14.156 31.6561C14.4295 31.3826 14.5831 31.0117 14.5831 30.6249V24.7916H20.4165V30.6249C20.4165 31.0117 20.5701 31.3826 20.8436 31.6561C21.1171 31.9296 21.488 32.0833 21.8748 32.0833H26.2498C26.6366 32.0833 27.0075 31.9296 27.281 31.6561C27.5545 31.3826 27.7081 31.0117 27.7081 30.6249V20.4166H30.6248C30.9072 20.4178 31.1839 20.3368 31.4211 20.1835C31.6583 20.0302 31.8458 19.8111 31.9606 19.5531C32.0755 19.2951 32.1128 19.0092 32.068 18.7304C32.0232 18.4515 31.8983 18.1917 31.7084 17.9826Z" fill="#F8F8F8"/>
</svg>
