<svg width="26" height="26" viewBox="0 0 26 26" fill="none" xmlns="http://www.w3.org/2000/svg">
<rect x="22.0421" y="22.2545" width="0.23468" height="0.23468" rx="0.11734" transform="rotate(-180 22.0421 22.2545)" fill="#99CA49" stroke="#E8E8E8" stroke-width="0.23468"/>
<rect x="22.0421" y="22.2545" width="0.23468" height="0.23468" rx="0.11734" transform="rotate(-180 22.0421 22.2545)" fill="#99CA49" stroke="#E8E8E8" stroke-width="0.23468"/>
<rect x="24.7961" y="24.7961" width="24.2961" height="24.2961" rx="5.5" transform="rotate(-180 24.7961 24.7961)" fill="#99CA49" stroke="#E8E8E8"/>
<path d="M17.8238 7.38258C18.0657 7.13448 18.3877 6.99732 18.7217 7.00004C19.0557 7.00276 19.3757 7.14516 19.6141 7.39718C19.8525 7.6492 19.9907 7.99113 19.9995 8.35082C20.0084 8.71052 19.8871 9.05984 19.6614 9.32508L12.809 18.5565C12.6912 18.6933 12.549 18.803 12.3909 18.8791C12.2328 18.9553 12.062 18.9963 11.8889 18.9998C11.7158 19.0032 11.5437 18.969 11.3831 18.8992C11.2225 18.8294 11.0766 18.7255 10.9542 18.5935L6.40996 13.6985C6.28341 13.5714 6.18191 13.4183 6.11151 13.2481C6.04111 13.0779 6.00325 12.8941 6.0002 12.7078C5.99715 12.5215 6.02896 12.3365 6.09375 12.1637C6.15853 11.9909 6.25495 11.834 6.37726 11.7022C6.49957 11.5705 6.64527 11.4666 6.80565 11.3968C6.96604 11.3271 7.13783 11.2928 7.31077 11.2961C7.48372 11.2994 7.65428 11.3401 7.81228 11.416C7.97028 11.4918 8.11248 11.6011 8.2304 11.7375L11.8266 15.6095L17.7912 7.42328C17.8019 7.40904 17.8117 7.39545 17.8238 7.38258Z" fill="#E8E8E8"/>
</svg>
