<svg width="110" height="39" viewBox="0 0 110 39" fill="none" xmlns="http://www.w3.org/2000/svg">
<rect width="110" height="39" rx="7" fill="#A65AFF"/>
<path d="M30.0314 26C29.9214 26 29.8314 25.965 29.7614 25.895C29.6914 25.825 29.6564 25.735 29.6564 25.625V15.875C29.6564 15.765 29.6914 15.675 29.7614 15.605C29.8314 15.535 29.9214 15.5 30.0314 15.5H36.9164C37.0264 15.5 37.1164 15.535 37.1864 15.605C37.2664 15.675 37.3064 15.765 37.3064 15.875V17.39C37.3064 17.5 37.2664 17.59 37.1864 17.66C37.1164 17.73 37.0264 17.765 36.9164 17.765H32.2964V19.97H36.6164C36.7264 19.97 36.8164 20.01 36.8864 20.09C36.9664 20.16 37.0064 20.25 37.0064 20.36V21.86C37.0064 21.96 36.9664 22.05 36.8864 22.13C36.8164 22.2 36.7264 22.235 36.6164 22.235H32.2964V25.625C32.2964 25.735 32.2614 25.825 32.1914 25.895C32.1214 25.965 32.0314 26 31.9214 26H30.0314ZM41.9174 26.15C40.7374 26.15 39.7974 25.83 39.0974 25.19C38.3974 24.55 38.0324 23.6 38.0024 22.34C38.0024 22.27 38.0024 22.18 38.0024 22.07C38.0024 21.96 38.0024 21.875 38.0024 21.815C38.0324 21.025 38.2074 20.35 38.5274 19.79C38.8574 19.22 39.3074 18.79 39.8774 18.5C40.4574 18.2 41.1324 18.05 41.9024 18.05C42.7824 18.05 43.5074 18.225 44.0774 18.575C44.6574 18.925 45.0924 19.4 45.3824 20C45.6724 20.6 45.8174 21.285 45.8174 22.055V22.415C45.8174 22.525 45.7774 22.615 45.6974 22.685C45.6274 22.755 45.5424 22.79 45.4424 22.79H40.6424C40.6424 22.8 40.6424 22.815 40.6424 22.835C40.6424 22.855 40.6424 22.875 40.6424 22.895C40.6524 23.185 40.7024 23.45 40.7924 23.69C40.8824 23.93 41.0224 24.12 41.2124 24.26C41.4024 24.4 41.6324 24.47 41.9024 24.47C42.1024 24.47 42.2674 24.44 42.3974 24.38C42.5374 24.31 42.6524 24.235 42.7424 24.155C42.8324 24.065 42.9024 23.99 42.9524 23.93C43.0424 23.83 43.1124 23.77 43.1624 23.75C43.2224 23.72 43.3124 23.705 43.4324 23.705H45.2924C45.3924 23.705 45.4724 23.735 45.5324 23.795C45.6024 23.845 45.6324 23.92 45.6224 24.02C45.6124 24.19 45.5274 24.395 45.3674 24.635C45.2074 24.875 44.9724 25.115 44.6624 25.355C44.3624 25.585 43.9824 25.775 43.5224 25.925C43.0624 26.075 42.5274 26.15 41.9174 26.15ZM40.6424 21.305H43.1774V21.275C43.1774 20.955 43.1274 20.675 43.0274 20.435C42.9374 20.195 42.7924 20.01 42.5924 19.88C42.4024 19.75 42.1724 19.685 41.9024 19.685C41.6324 19.685 41.4024 19.75 41.2124 19.88C41.0324 20.01 40.8924 20.195 40.7924 20.435C40.6924 20.675 40.6424 20.955 40.6424 21.275V21.305ZM47.2987 26C47.1887 26 47.0987 25.965 47.0287 25.895C46.9587 25.825 46.9237 25.735 46.9237 25.625V18.575C46.9237 18.475 46.9587 18.39 47.0287 18.32C47.0987 18.24 47.1887 18.2 47.2987 18.2H49.0237C49.1337 18.2 49.2237 18.24 49.2937 18.32C49.3637 18.39 49.3987 18.475 49.3987 18.575V19.175C49.6687 18.865 49.9887 18.625 50.3587 18.455C50.7387 18.285 51.1637 18.2 51.6337 18.2H52.2937C52.3937 18.2 52.4787 18.235 52.5487 18.305C52.6287 18.375 52.6687 18.465 52.6687 18.575V20.12C52.6687 20.22 52.6287 20.31 52.5487 20.39C52.4787 20.46 52.3937 20.495 52.2937 20.495H50.8387C50.4287 20.495 50.1087 20.61 49.8787 20.84C49.6587 21.06 49.5487 21.375 49.5487 21.785V25.625C49.5487 25.735 49.5087 25.825 49.4287 25.895C49.3587 25.965 49.2687 26 49.1587 26H47.2987ZM53.8102 26C53.7002 26 53.6102 25.965 53.5402 25.895C53.4702 25.825 53.4352 25.735 53.4352 25.625V18.575C53.4352 18.465 53.4702 18.375 53.5402 18.305C53.6102 18.235 53.7002 18.2 53.8102 18.2H55.4452C55.5552 18.2 55.6452 18.235 55.7152 18.305C55.7852 18.375 55.8202 18.465 55.8202 18.575V19.085C56.0202 18.815 56.3002 18.58 56.6602 18.38C57.0202 18.17 57.4452 18.06 57.9352 18.05C59.0852 18.03 59.8752 18.465 60.3052 19.355C60.5352 18.975 60.8652 18.665 61.2952 18.425C61.7252 18.175 62.1952 18.05 62.7052 18.05C63.2252 18.05 63.6902 18.17 64.1002 18.41C64.5202 18.64 64.8552 19 65.1052 19.49C65.3552 19.97 65.4802 20.595 65.4802 21.365V25.625C65.4802 25.735 65.4402 25.825 65.3602 25.895C65.2902 25.965 65.2052 26 65.1052 26H63.3652C63.2552 26 63.1602 25.965 63.0802 25.895C63.0102 25.825 62.9752 25.735 62.9752 25.625V21.47C62.9752 21.12 62.9252 20.845 62.8252 20.645C62.7252 20.435 62.5902 20.285 62.4202 20.195C62.2502 20.105 62.0552 20.06 61.8352 20.06C61.6552 20.06 61.4752 20.105 61.2952 20.195C61.1252 20.285 60.9852 20.435 60.8752 20.645C60.7752 20.845 60.7252 21.12 60.7252 21.47V25.625C60.7252 25.735 60.6902 25.825 60.6202 25.895C60.5502 25.965 60.4602 26 60.3502 26H58.6102C58.5002 26 58.4102 25.965 58.3402 25.895C58.2702 25.825 58.2352 25.735 58.2352 25.625V21.47C58.2352 21.12 58.1802 20.845 58.0702 20.645C57.9602 20.435 57.8202 20.285 57.6502 20.195C57.4802 20.105 57.2902 20.06 57.0802 20.06C56.9002 20.06 56.7202 20.105 56.5402 20.195C56.3702 20.285 56.2302 20.435 56.1202 20.645C56.0202 20.845 55.9702 21.115 55.9702 21.455V25.625C55.9702 25.735 55.9302 25.825 55.8502 25.895C55.7802 25.965 55.6902 26 55.5802 26H53.8102ZM70.4608 26.15C69.2808 26.15 68.3408 25.83 67.6408 25.19C66.9408 24.55 66.5758 23.6 66.5458 22.34C66.5458 22.27 66.5458 22.18 66.5458 22.07C66.5458 21.96 66.5458 21.875 66.5458 21.815C66.5758 21.025 66.7508 20.35 67.0708 19.79C67.4008 19.22 67.8508 18.79 68.4208 18.5C69.0008 18.2 69.6758 18.05 70.4458 18.05C71.3258 18.05 72.0508 18.225 72.6208 18.575C73.2008 18.925 73.6358 19.4 73.9258 20C74.2158 20.6 74.3608 21.285 74.3608 22.055V22.415C74.3608 22.525 74.3208 22.615 74.2408 22.685C74.1708 22.755 74.0858 22.79 73.9858 22.79H69.1858C69.1858 22.8 69.1858 22.815 69.1858 22.835C69.1858 22.855 69.1858 22.875 69.1858 22.895C69.1958 23.185 69.2458 23.45 69.3358 23.69C69.4258 23.93 69.5658 24.12 69.7558 24.26C69.9458 24.4 70.1758 24.47 70.4458 24.47C70.6458 24.47 70.8108 24.44 70.9408 24.38C71.0808 24.31 71.1958 24.235 71.2858 24.155C71.3758 24.065 71.4458 23.99 71.4958 23.93C71.5858 23.83 71.6558 23.77 71.7058 23.75C71.7658 23.72 71.8558 23.705 71.9758 23.705H73.8358C73.9358 23.705 74.0158 23.735 74.0758 23.795C74.1458 23.845 74.1758 23.92 74.1658 24.02C74.1558 24.19 74.0708 24.395 73.9108 24.635C73.7508 24.875 73.5158 25.115 73.2058 25.355C72.9058 25.585 72.5258 25.775 72.0658 25.925C71.6058 26.075 71.0708 26.15 70.4608 26.15ZM69.1858 21.305H71.7208V21.275C71.7208 20.955 71.6708 20.675 71.5708 20.435C71.4808 20.195 71.3358 20.01 71.1358 19.88C70.9458 19.75 70.7158 19.685 70.4458 19.685C70.1758 19.685 69.9458 19.75 69.7558 19.88C69.5758 20.01 69.4358 20.195 69.3358 20.435C69.2358 20.675 69.1858 20.955 69.1858 21.275V21.305ZM75.842 26C75.732 26 75.642 25.965 75.572 25.895C75.502 25.825 75.467 25.735 75.467 25.625V18.575C75.467 18.475 75.502 18.39 75.572 18.32C75.642 18.24 75.732 18.2 75.842 18.2H77.567C77.677 18.2 77.767 18.24 77.837 18.32C77.907 18.39 77.942 18.475 77.942 18.575V19.175C78.212 18.865 78.532 18.625 78.902 18.455C79.282 18.285 79.707 18.2 80.177 18.2H80.837C80.937 18.2 81.022 18.235 81.092 18.305C81.172 18.375 81.212 18.465 81.212 18.575V20.12C81.212 20.22 81.172 20.31 81.092 20.39C81.022 20.46 80.937 20.495 80.837 20.495H79.382C78.972 20.495 78.652 20.61 78.422 20.84C78.202 21.06 78.092 21.375 78.092 21.785V25.625C78.092 25.735 78.052 25.825 77.972 25.895C77.902 25.965 77.812 26 77.702 26H75.842Z" fill="#F2F2F2"/>
</svg>
