<svg width="35" height="35" viewBox="0 0 35 35" fill="none" xmlns="http://www.w3.org/2000/svg">
<path d="M28.4375 10.9375H6.5625C5.98252 10.9381 5.42645 11.1687 5.01634 11.5788C4.60623 11.989 4.37558 12.545 4.375 13.125V28.4375C4.37558 29.0175 4.60623 29.5735 5.01634 29.9837C5.42645 30.3938 5.98252 30.6244 6.5625 30.625H28.4375C29.0175 30.6244 29.5735 30.3938 29.9837 29.9837C30.3938 29.5735 30.6244 29.0175 30.625 28.4375V13.125C30.6244 12.545 30.3938 11.989 29.9837 11.5788C29.5735 11.1687 29.0175 10.9381 28.4375 10.9375ZM14.2188 25.1562V16.4062L21.875 20.7812L14.2188 25.1562ZM6.5625 6.5625H28.4375V8.75H6.5625V6.5625ZM8.75 2.1875H26.25V4.375H8.75V2.1875Z" fill="#F8F8F8"/>
</svg>
