<svg width="110" height="39" viewBox="0 0 110 39" fill="none" xmlns="http://www.w3.org/2000/svg">
<rect width="110" height="39" rx="7" fill="#DD2929"/>
<path d="M21.4311 26.15C20.4311 26.15 19.6011 26.01 18.9411 25.73C18.2811 25.44 17.7811 25.065 17.4411 24.605C17.1011 24.145 16.9211 23.655 16.9011 23.135C16.9011 23.055 16.9311 22.985 16.9911 22.925C17.0611 22.855 17.1411 22.82 17.2311 22.82H19.1211C19.2611 22.82 19.3661 22.845 19.4361 22.895C19.5161 22.945 19.5861 23.01 19.6461 23.09C19.7261 23.24 19.8361 23.385 19.9761 23.525C20.1261 23.665 20.3161 23.78 20.5461 23.87C20.7861 23.95 21.0811 23.99 21.4311 23.99C22.0111 23.99 22.4461 23.9 22.7361 23.72C23.0361 23.54 23.1861 23.295 23.1861 22.985C23.1861 22.765 23.1061 22.585 22.9461 22.445C22.7861 22.295 22.5261 22.165 22.1661 22.055C21.8161 21.935 21.3461 21.815 20.7561 21.695C19.9961 21.535 19.3461 21.33 18.8061 21.08C18.2761 20.82 17.8711 20.485 17.5911 20.075C17.3111 19.655 17.1711 19.135 17.1711 18.515C17.1711 17.905 17.3411 17.36 17.6811 16.88C18.0311 16.4 18.5161 16.025 19.1361 15.755C19.7561 15.485 20.4911 15.35 21.3411 15.35C22.0311 15.35 22.6361 15.44 23.1561 15.62C23.6861 15.8 24.1311 16.04 24.4911 16.34C24.8511 16.64 25.1211 16.96 25.3011 17.3C25.4911 17.63 25.5911 17.955 25.6011 18.275C25.6011 18.355 25.5711 18.43 25.5111 18.5C25.4511 18.56 25.3761 18.59 25.2861 18.59H23.3061C23.1961 18.59 23.1011 18.57 23.0211 18.53C22.9411 18.49 22.8711 18.425 22.8111 18.335C22.7511 18.115 22.5911 17.925 22.3311 17.765C22.0811 17.595 21.7511 17.51 21.3411 17.51C20.9011 17.51 20.5561 17.59 20.3061 17.75C20.0661 17.9 19.9461 18.135 19.9461 18.455C19.9461 18.655 20.0111 18.83 20.1411 18.98C20.2811 19.13 20.5061 19.26 20.8161 19.37C21.1361 19.48 21.5711 19.595 22.1211 19.715C23.0311 19.885 23.7661 20.1 24.3261 20.36C24.8861 20.61 25.2961 20.94 25.5561 21.35C25.8161 21.75 25.9461 22.255 25.9461 22.865C25.9461 23.545 25.7511 24.135 25.3611 24.635C24.9811 25.125 24.4511 25.5 23.7711 25.76C23.0911 26.02 22.3111 26.15 21.4311 26.15ZM29.8478 26.15C29.2778 26.15 28.7678 26.02 28.3178 25.76C27.8778 25.5 27.5328 25.12 27.2828 24.62C27.0328 24.11 26.9078 23.49 26.9078 22.76V18.575C26.9078 18.465 26.9428 18.375 27.0128 18.305C27.0828 18.235 27.1728 18.2 27.2828 18.2H29.1578C29.2678 18.2 29.3578 18.235 29.4278 18.305C29.4978 18.375 29.5328 18.465 29.5328 18.575V22.67C29.5328 23.65 29.9728 24.14 30.8528 24.14C31.2628 24.14 31.5878 24.015 31.8278 23.765C32.0778 23.505 32.2028 23.14 32.2028 22.67V18.575C32.2028 18.465 32.2378 18.375 32.3078 18.305C32.3778 18.235 32.4678 18.2 32.5778 18.2H34.4528C34.5628 18.2 34.6528 18.235 34.7228 18.305C34.7928 18.375 34.8278 18.465 34.8278 18.575V25.625C34.8278 25.735 34.7928 25.825 34.7228 25.895C34.6528 25.965 34.5628 26 34.4528 26H32.7128C32.6128 26 32.5228 25.965 32.4428 25.895C32.3728 25.825 32.3378 25.735 32.3378 25.625V25.055C32.0778 25.415 31.7378 25.69 31.3178 25.88C30.9078 26.06 30.4178 26.15 29.8478 26.15ZM36.6671 28.85C36.5571 28.85 36.4671 28.815 36.3971 28.745C36.3271 28.675 36.2921 28.585 36.2921 28.475V18.575C36.2921 18.465 36.3271 18.375 36.3971 18.305C36.4671 18.235 36.5571 18.2 36.6671 18.2H38.3621C38.4621 18.2 38.5471 18.235 38.6171 18.305C38.6971 18.375 38.7371 18.465 38.7371 18.575V19.13C38.9671 18.82 39.2721 18.565 39.6521 18.365C40.0321 18.155 40.5021 18.05 41.0621 18.05C41.5621 18.05 42.0021 18.13 42.3821 18.29C42.7621 18.44 43.0871 18.665 43.3571 18.965C43.6271 19.265 43.8371 19.63 43.9871 20.06C44.1471 20.49 44.2371 20.985 44.2571 21.545C44.2671 21.745 44.2721 21.93 44.2721 22.1C44.2721 22.27 44.2671 22.455 44.2571 22.655C44.2371 23.195 44.1521 23.68 44.0021 24.11C43.8521 24.54 43.6421 24.905 43.3721 25.205C43.1021 25.505 42.7721 25.74 42.3821 25.91C42.0021 26.07 41.5621 26.15 41.0621 26.15C40.5721 26.15 40.1421 26.065 39.7721 25.895C39.4121 25.715 39.1121 25.465 38.8721 25.145V28.475C38.8721 28.585 38.8371 28.675 38.7671 28.745C38.6971 28.815 38.6071 28.85 38.4971 28.85H36.6671ZM40.2521 24.14C40.5921 24.14 40.8571 24.07 41.0471 23.93C41.2371 23.79 41.3721 23.6 41.4521 23.36C41.5421 23.12 41.5971 22.855 41.6171 22.565C41.6371 22.255 41.6371 21.945 41.6171 21.635C41.5971 21.345 41.5421 21.08 41.4521 20.84C41.3721 20.6 41.2371 20.41 41.0471 20.27C40.8571 20.13 40.5921 20.06 40.2521 20.06C39.9221 20.06 39.6571 20.135 39.4571 20.285C39.2571 20.425 39.1121 20.61 39.0221 20.84C38.9321 21.07 38.8821 21.32 38.8721 21.59C38.8621 21.78 38.8571 21.965 38.8571 22.145C38.8571 22.325 38.8621 22.515 38.8721 22.715C38.8821 22.965 38.9371 23.2 39.0371 23.42C39.1371 23.63 39.2871 23.805 39.4871 23.945C39.6871 24.075 39.9421 24.14 40.2521 24.14ZM45.83 28.85C45.72 28.85 45.63 28.815 45.56 28.745C45.49 28.675 45.455 28.585 45.455 28.475V18.575C45.455 18.465 45.49 18.375 45.56 18.305C45.63 18.235 45.72 18.2 45.83 18.2H47.525C47.625 18.2 47.71 18.235 47.78 18.305C47.86 18.375 47.9 18.465 47.9 18.575V19.13C48.13 18.82 48.435 18.565 48.815 18.365C49.195 18.155 49.665 18.05 50.225 18.05C50.725 18.05 51.165 18.13 51.545 18.29C51.925 18.44 52.25 18.665 52.52 18.965C52.79 19.265 53 19.63 53.15 20.06C53.31 20.49 53.4 20.985 53.42 21.545C53.43 21.745 53.435 21.93 53.435 22.1C53.435 22.27 53.43 22.455 53.42 22.655C53.4 23.195 53.315 23.68 53.165 24.11C53.015 24.54 52.805 24.905 52.535 25.205C52.265 25.505 51.935 25.74 51.545 25.91C51.165 26.07 50.725 26.15 50.225 26.15C49.735 26.15 49.305 26.065 48.935 25.895C48.575 25.715 48.275 25.465 48.035 25.145V28.475C48.035 28.585 48 28.675 47.93 28.745C47.86 28.815 47.77 28.85 47.66 28.85H45.83ZM49.415 24.14C49.755 24.14 50.02 24.07 50.21 23.93C50.4 23.79 50.535 23.6 50.615 23.36C50.705 23.12 50.76 22.855 50.78 22.565C50.8 22.255 50.8 21.945 50.78 21.635C50.76 21.345 50.705 21.08 50.615 20.84C50.535 20.6 50.4 20.41 50.21 20.27C50.02 20.13 49.755 20.06 49.415 20.06C49.085 20.06 48.82 20.135 48.62 20.285C48.42 20.425 48.275 20.61 48.185 20.84C48.095 21.07 48.045 21.32 48.035 21.59C48.025 21.78 48.02 21.965 48.02 22.145C48.02 22.325 48.025 22.515 48.035 22.715C48.045 22.965 48.1 23.2 48.2 23.42C48.3 23.63 48.45 23.805 48.65 23.945C48.85 24.075 49.105 24.14 49.415 24.14ZM54.9929 26C54.8829 26 54.7929 25.965 54.7229 25.895C54.6529 25.825 54.6179 25.735 54.6179 25.625V18.575C54.6179 18.475 54.6529 18.39 54.7229 18.32C54.7929 18.24 54.8829 18.2 54.9929 18.2H56.7179C56.8279 18.2 56.9179 18.24 56.9879 18.32C57.0579 18.39 57.0929 18.475 57.0929 18.575V19.175C57.3629 18.865 57.6829 18.625 58.0529 18.455C58.4329 18.285 58.8579 18.2 59.3279 18.2H59.9879C60.0879 18.2 60.1729 18.235 60.2429 18.305C60.3229 18.375 60.3629 18.465 60.3629 18.575V20.12C60.3629 20.22 60.3229 20.31 60.2429 20.39C60.1729 20.46 60.0879 20.495 59.9879 20.495H58.5329C58.1229 20.495 57.8029 20.61 57.5729 20.84C57.3529 21.06 57.2429 21.375 57.2429 21.785V25.625C57.2429 25.735 57.2029 25.825 57.1229 25.895C57.0529 25.965 56.9629 26 56.8529 26H54.9929ZM61.5044 26C61.3944 26 61.3044 25.965 61.2344 25.895C61.1644 25.825 61.1294 25.735 61.1294 25.625V18.575C61.1294 18.465 61.1644 18.375 61.2344 18.305C61.3044 18.235 61.3944 18.2 61.5044 18.2H63.2744C63.3744 18.2 63.4594 18.235 63.5294 18.305C63.6094 18.375 63.6494 18.465 63.6494 18.575V25.625C63.6494 25.735 63.6094 25.825 63.5294 25.895C63.4594 25.965 63.3744 26 63.2744 26H61.5044ZM61.4894 17.075C61.3794 17.075 61.2894 17.04 61.2194 16.97C61.1494 16.9 61.1144 16.81 61.1144 16.7V15.365C61.1144 15.255 61.1494 15.165 61.2194 15.095C61.2894 15.015 61.3794 14.975 61.4894 14.975H63.2744C63.3844 14.975 63.4744 15.015 63.5444 15.095C63.6244 15.165 63.6644 15.255 63.6644 15.365V16.7C63.6644 16.81 63.6244 16.9 63.5444 16.97C63.4744 17.04 63.3844 17.075 63.2744 17.075H61.4894ZM65.9505 26C65.8405 26 65.7505 25.965 65.6805 25.895C65.6105 25.825 65.5755 25.735 65.5755 25.625V18.575C65.5755 18.465 65.6105 18.375 65.6805 18.305C65.7505 18.235 65.8405 18.2 65.9505 18.2H67.5855C67.6955 18.2 67.7855 18.235 67.8555 18.305C67.9255 18.375 67.9605 18.465 67.9605 18.575V19.085C68.1605 18.815 68.4405 18.58 68.8005 18.38C69.1605 18.17 69.5855 18.06 70.0755 18.05C71.2255 18.03 72.0155 18.465 72.4455 19.355C72.6755 18.975 73.0055 18.665 73.4355 18.425C73.8655 18.175 74.3355 18.05 74.8455 18.05C75.3655 18.05 75.8305 18.17 76.2405 18.41C76.6605 18.64 76.9955 19 77.2455 19.49C77.4955 19.97 77.6205 20.595 77.6205 21.365V25.625C77.6205 25.735 77.5805 25.825 77.5005 25.895C77.4305 25.965 77.3455 26 77.2455 26H75.5055C75.3955 26 75.3005 25.965 75.2205 25.895C75.1505 25.825 75.1155 25.735 75.1155 25.625V21.47C75.1155 21.12 75.0655 20.845 74.9655 20.645C74.8655 20.435 74.7305 20.285 74.5605 20.195C74.3905 20.105 74.1955 20.06 73.9755 20.06C73.7955 20.06 73.6155 20.105 73.4355 20.195C73.2655 20.285 73.1255 20.435 73.0155 20.645C72.9155 20.845 72.8655 21.12 72.8655 21.47V25.625C72.8655 25.735 72.8305 25.825 72.7605 25.895C72.6905 25.965 72.6005 26 72.4905 26H70.7505C70.6405 26 70.5505 25.965 70.4805 25.895C70.4105 25.825 70.3755 25.735 70.3755 25.625V21.47C70.3755 21.12 70.3205 20.845 70.2105 20.645C70.1005 20.435 69.9605 20.285 69.7905 20.195C69.6205 20.105 69.4305 20.06 69.2205 20.06C69.0405 20.06 68.8605 20.105 68.6805 20.195C68.5105 20.285 68.3705 20.435 68.2605 20.645C68.1605 20.845 68.1105 21.115 68.1105 21.455V25.625C68.1105 25.735 68.0705 25.825 67.9905 25.895C67.9205 25.965 67.8305 26 67.7205 26H65.9505ZM82.6011 26.15C81.4211 26.15 80.4811 25.83 79.7811 25.19C79.0811 24.55 78.7161 23.6 78.6861 22.34C78.6861 22.27 78.6861 22.18 78.6861 22.07C78.6861 21.96 78.6861 21.875 78.6861 21.815C78.7161 21.025 78.8911 20.35 79.2111 19.79C79.5411 19.22 79.9911 18.79 80.5611 18.5C81.1411 18.2 81.8161 18.05 82.5861 18.05C83.4661 18.05 84.1911 18.225 84.7611 18.575C85.3411 18.925 85.7761 19.4 86.0661 20C86.3561 20.6 86.5011 21.285 86.5011 22.055V22.415C86.5011 22.525 86.4611 22.615 86.3811 22.685C86.3111 22.755 86.2261 22.79 86.1261 22.79H81.3261C81.3261 22.8 81.3261 22.815 81.3261 22.835C81.3261 22.855 81.3261 22.875 81.3261 22.895C81.3361 23.185 81.3861 23.45 81.4761 23.69C81.5661 23.93 81.7061 24.12 81.8961 24.26C82.0861 24.4 82.3161 24.47 82.5861 24.47C82.7861 24.47 82.9511 24.44 83.0811 24.38C83.2211 24.31 83.3361 24.235 83.4261 24.155C83.5161 24.065 83.5861 23.99 83.6361 23.93C83.7261 23.83 83.7961 23.77 83.8461 23.75C83.9061 23.72 83.9961 23.705 84.1161 23.705H85.9761C86.0761 23.705 86.1561 23.735 86.2161 23.795C86.2861 23.845 86.3161 23.92 86.3061 24.02C86.2961 24.19 86.2111 24.395 86.0511 24.635C85.8911 24.875 85.6561 25.115 85.3461 25.355C85.0461 25.585 84.6661 25.775 84.2061 25.925C83.7461 26.075 83.2111 26.15 82.6011 26.15ZM81.3261 21.305H83.8611V21.275C83.8611 20.955 83.8111 20.675 83.7111 20.435C83.6211 20.195 83.4761 20.01 83.2761 19.88C83.0861 19.75 82.8561 19.685 82.5861 19.685C82.3161 19.685 82.0861 19.75 81.8961 19.88C81.7161 20.01 81.5761 20.195 81.4761 20.435C81.3761 20.675 81.3261 20.955 81.3261 21.275V21.305ZM87.9824 26C87.8724 26 87.7824 25.965 87.7124 25.895C87.6424 25.825 87.6074 25.735 87.6074 25.625V18.575C87.6074 18.475 87.6424 18.39 87.7124 18.32C87.7824 18.24 87.8724 18.2 87.9824 18.2H89.7074C89.8174 18.2 89.9074 18.24 89.9774 18.32C90.0474 18.39 90.0824 18.475 90.0824 18.575V19.175C90.3524 18.865 90.6724 18.625 91.0424 18.455C91.4224 18.285 91.8474 18.2 92.3174 18.2H92.9774C93.0774 18.2 93.1624 18.235 93.2324 18.305C93.3124 18.375 93.3524 18.465 93.3524 18.575V20.12C93.3524 20.22 93.3124 20.31 93.2324 20.39C93.1624 20.46 93.0774 20.495 92.9774 20.495H91.5224C91.1124 20.495 90.7924 20.61 90.5624 20.84C90.3424 21.06 90.2324 21.375 90.2324 21.785V25.625C90.2324 25.735 90.1924 25.825 90.1124 25.895C90.0424 25.965 89.9524 26 89.8424 26H87.9824Z" fill="#F2F2F2"/>
</svg>
