<svg width="110" height="39" viewBox="0 0 110 39" fill="none" xmlns="http://www.w3.org/2000/svg">
<rect width="110" height="39" rx="7" fill="#A65AFF"/>
<path d="M35.1511 26C35.0411 26 34.9511 25.965 34.8811 25.895C34.8111 25.825 34.7761 25.735 34.7761 25.625V15.875C34.7761 15.765 34.8111 15.675 34.8811 15.605C34.9511 15.535 35.0411 15.5 35.1511 15.5H39.0511C40.0311 15.5 40.8661 15.66 41.5561 15.98C42.2461 16.29 42.7761 16.75 43.1461 17.36C43.5161 17.96 43.7161 18.705 43.7461 19.595C43.7561 20.035 43.7611 20.42 43.7611 20.75C43.7611 21.08 43.7561 21.46 43.7461 21.89C43.7061 22.82 43.5061 23.59 43.1461 24.2C42.7961 24.81 42.2811 25.265 41.6011 25.565C40.9311 25.855 40.1061 26 39.1261 26H35.1511ZM37.4611 23.84H39.0511C39.4811 23.84 39.8361 23.775 40.1161 23.645C40.4061 23.505 40.6211 23.29 40.7611 23C40.9111 22.71 40.9911 22.33 41.0011 21.86C41.0211 21.57 41.0311 21.31 41.0311 21.08C41.0411 20.85 41.0411 20.62 41.0311 20.39C41.0311 20.16 41.0211 19.905 41.0011 19.625C40.9811 18.945 40.8011 18.45 40.4611 18.14C40.1311 17.82 39.6361 17.66 38.9761 17.66H37.4611V23.84ZM48.6484 26.15C47.4684 26.15 46.5284 25.83 45.8284 25.19C45.1284 24.55 44.7634 23.6 44.7334 22.34C44.7334 22.27 44.7334 22.18 44.7334 22.07C44.7334 21.96 44.7334 21.875 44.7334 21.815C44.7634 21.025 44.9384 20.35 45.2584 19.79C45.5884 19.22 46.0384 18.79 46.6084 18.5C47.1884 18.2 47.8634 18.05 48.6334 18.05C49.5134 18.05 50.2384 18.225 50.8084 18.575C51.3884 18.925 51.8234 19.4 52.1134 20C52.4034 20.6 52.5484 21.285 52.5484 22.055V22.415C52.5484 22.525 52.5084 22.615 52.4284 22.685C52.3584 22.755 52.2734 22.79 52.1734 22.79H47.3734C47.3734 22.8 47.3734 22.815 47.3734 22.835C47.3734 22.855 47.3734 22.875 47.3734 22.895C47.3834 23.185 47.4334 23.45 47.5234 23.69C47.6134 23.93 47.7534 24.12 47.9434 24.26C48.1334 24.4 48.3634 24.47 48.6334 24.47C48.8334 24.47 48.9984 24.44 49.1284 24.38C49.2684 24.31 49.3834 24.235 49.4734 24.155C49.5634 24.065 49.6334 23.99 49.6834 23.93C49.7734 23.83 49.8434 23.77 49.8934 23.75C49.9534 23.72 50.0434 23.705 50.1634 23.705H52.0234C52.1234 23.705 52.2034 23.735 52.2634 23.795C52.3334 23.845 52.3634 23.92 52.3534 24.02C52.3434 24.19 52.2584 24.395 52.0984 24.635C51.9384 24.875 51.7034 25.115 51.3934 25.355C51.0934 25.585 50.7134 25.775 50.2534 25.925C49.7934 26.075 49.2584 26.15 48.6484 26.15ZM47.3734 21.305H49.9084V21.275C49.9084 20.955 49.8584 20.675 49.7584 20.435C49.6684 20.195 49.5234 20.01 49.3234 19.88C49.1334 19.75 48.9034 19.685 48.6334 19.685C48.3634 19.685 48.1334 19.75 47.9434 19.88C47.7634 20.01 47.6234 20.195 47.5234 20.435C47.4234 20.675 47.3734 20.955 47.3734 21.275V21.305ZM47.7634 17.075C47.6034 17.075 47.5234 16.995 47.5234 16.835C47.5234 16.755 47.5484 16.69 47.5984 16.64L48.9184 15.035C49.0184 14.915 49.1034 14.84 49.1734 14.81C49.2434 14.77 49.3434 14.75 49.4734 14.75H51.4384C51.6284 14.75 51.7234 14.85 51.7234 15.05C51.7234 15.12 51.6984 15.18 51.6484 15.23L49.6684 16.865C49.5884 16.935 49.5084 16.99 49.4284 17.03C49.3484 17.06 49.2384 17.075 49.0984 17.075H47.7634ZM57.63 26C56.99 26 56.435 25.9 55.965 25.7C55.505 25.49 55.15 25.17 54.9 24.74C54.65 24.3 54.525 23.735 54.525 23.045V20.165H53.355C53.245 20.165 53.15 20.13 53.07 20.06C53 19.99 52.965 19.9 52.965 19.79V18.575C52.965 18.465 53 18.375 53.07 18.305C53.15 18.235 53.245 18.2 53.355 18.2H54.525V15.725C54.525 15.615 54.56 15.525 54.63 15.455C54.71 15.385 54.8 15.35 54.9 15.35H56.64C56.75 15.35 56.84 15.385 56.91 15.455C56.98 15.525 57.015 15.615 57.015 15.725V18.2H58.89C59 18.2 59.09 18.235 59.16 18.305C59.23 18.375 59.265 18.465 59.265 18.575V19.79C59.265 19.9 59.23 19.99 59.16 20.06C59.09 20.13 59 20.165 58.89 20.165H57.015V22.835C57.015 23.175 57.08 23.445 57.21 23.645C57.34 23.845 57.56 23.945 57.87 23.945H59.025C59.135 23.945 59.225 23.98 59.295 24.05C59.365 24.12 59.4 24.21 59.4 24.32V25.625C59.4 25.735 59.365 25.825 59.295 25.895C59.225 25.965 59.135 26 59.025 26H57.63ZM62.6819 26.15C62.1419 26.15 61.6569 26.05 61.2269 25.85C60.8069 25.64 60.4719 25.36 60.2219 25.01C59.9719 24.66 59.8469 24.265 59.8469 23.825C59.8469 23.115 60.1369 22.555 60.7169 22.145C61.2969 21.725 62.0669 21.44 63.0269 21.29L64.9019 21.005V20.795C64.9019 20.435 64.8269 20.16 64.6769 19.97C64.5269 19.78 64.2519 19.685 63.8519 19.685C63.5719 19.685 63.3419 19.74 63.1619 19.85C62.9919 19.96 62.8569 20.11 62.7569 20.3C62.6669 20.43 62.5419 20.495 62.3819 20.495H60.7019C60.5919 20.495 60.5069 20.465 60.4469 20.405C60.3869 20.335 60.3619 20.255 60.3719 20.165C60.3719 19.985 60.4369 19.78 60.5669 19.55C60.7069 19.31 60.9169 19.075 61.1969 18.845C61.4769 18.615 61.8369 18.425 62.2769 18.275C62.7169 18.125 63.2469 18.05 63.8669 18.05C64.5169 18.05 65.0719 18.125 65.5319 18.275C65.9919 18.425 66.3619 18.635 66.6419 18.905C66.9319 19.175 67.1469 19.495 67.2869 19.865C67.4269 20.225 67.4969 20.625 67.4969 21.065V25.625C67.4969 25.735 67.4569 25.825 67.3769 25.895C67.3069 25.965 67.2219 26 67.1219 26H65.3819C65.2719 26 65.1819 25.965 65.1119 25.895C65.0419 25.825 65.0069 25.735 65.0069 25.625V25.1C64.8769 25.29 64.7019 25.465 64.4819 25.625C64.2619 25.785 64.0019 25.91 63.7019 26C63.4119 26.1 63.0719 26.15 62.6819 26.15ZM63.3869 24.44C63.6769 24.44 63.9369 24.38 64.1669 24.26C64.4069 24.13 64.5919 23.935 64.7219 23.675C64.8619 23.405 64.9319 23.07 64.9319 22.67V22.46L63.6569 22.685C63.1869 22.765 62.8419 22.89 62.6219 23.06C62.4119 23.22 62.3069 23.41 62.3069 23.63C62.3069 23.8 62.3569 23.945 62.4569 24.065C62.5569 24.185 62.6869 24.28 62.8469 24.35C63.0069 24.41 63.1869 24.44 63.3869 24.44ZM69.2646 26C69.1546 26 69.0646 25.965 68.9946 25.895C68.9246 25.825 68.8896 25.735 68.8896 25.625V18.575C68.8896 18.465 68.9246 18.375 68.9946 18.305C69.0646 18.235 69.1546 18.2 69.2646 18.2H71.0346C71.1346 18.2 71.2196 18.235 71.2896 18.305C71.3696 18.375 71.4096 18.465 71.4096 18.575V25.625C71.4096 25.735 71.3696 25.825 71.2896 25.895C71.2196 25.965 71.1346 26 71.0346 26H69.2646ZM69.2496 17.075C69.1396 17.075 69.0496 17.04 68.9796 16.97C68.9096 16.9 68.8746 16.81 68.8746 16.7V15.365C68.8746 15.255 68.9096 15.165 68.9796 15.095C69.0496 15.015 69.1396 14.975 69.2496 14.975H71.0346C71.1446 14.975 71.2346 15.015 71.3046 15.095C71.3846 15.165 71.4246 15.255 71.4246 15.365V16.7C71.4246 16.81 71.3846 16.9 71.3046 16.97C71.2346 17.04 71.1446 17.075 71.0346 17.075H69.2496ZM73.2419 26C73.1319 26 73.0419 25.965 72.9719 25.895C72.9019 25.825 72.8669 25.735 72.8669 25.625V15.725C72.8669 15.615 72.9019 15.525 72.9719 15.455C73.0419 15.385 73.1319 15.35 73.2419 15.35H75.0119C75.1219 15.35 75.2119 15.385 75.2819 15.455C75.3519 15.525 75.3869 15.615 75.3869 15.725V25.625C75.3869 25.735 75.3519 25.825 75.2819 25.895C75.2119 25.965 75.1219 26 75.0119 26H73.2419Z" fill="#F2F2F2"/>
</svg>
