<svg width="35" height="35" viewBox="0 0 35 35" fill="none" xmlns="http://www.w3.org/2000/svg">
<g clip-path="url(#clip0_26_32)">
<path d="M34.9946 8.93266C34.9946 7.85641 34.9038 6.78453 34.6468 5.73672C34.1852 3.82812 33.0969 2.37016 31.4683 1.29937C30.6305 0.7525 29.7085 0.416719 28.7285 0.239531C27.9759 0.107863 27.2141 0.0354532 26.4502 0.0229688C26.3933 0.0175 26.331 0.00546875 26.2675 0H8.73363C8.5116 0.0175 8.28957 0.0284375 8.06753 0.039375C6.97925 0.101719 5.89753 0.215469 4.8716 0.625625C2.92363 1.39453 1.51597 2.73875 0.695659 4.67578C0.411284 5.33094 0.268003 6.02547 0.166284 6.73203C0.0809717 7.30188 0.0350342 7.87719 0.0186279 8.4525C0.0186279 8.49844 0.00769043 8.54328 0.00769043 8.58922V26.4141L0.0415967 27.0298C0.115972 28.2209 0.269097 29.4 0.771128 30.4937C1.71722 32.562 3.30644 33.9227 5.48847 34.5778C6.09769 34.7659 6.73644 34.8512 7.3741 34.9081C8.18347 34.988 8.99175 34.9989 9.80113 34.9989H25.888C26.6514 34.9989 27.4149 34.9475 28.1783 34.8512C29.3803 34.697 30.508 34.3438 31.5285 33.6722C32.7364 32.8897 33.6888 31.7707 34.2683 30.4533C34.5418 29.8375 34.696 29.1834 34.8097 28.5217C34.9749 27.5362 35.0088 26.5388 35.0088 25.5423C35.0033 20.0047 35.0088 14.4681 35.0033 8.93047L34.9946 8.93266ZM25.6288 14.7481V23.077C25.6288 23.6863 25.5435 24.2845 25.27 24.8369C24.8489 25.6966 24.1653 26.238 23.2477 26.5005C22.7393 26.6461 22.2153 26.7302 21.6869 26.7509C21.0224 26.7902 20.3667 26.5838 19.8445 26.1709C19.3224 25.7581 18.9703 25.1677 18.8552 24.512C18.7498 23.9221 18.8409 23.314 19.1146 22.7809C19.3882 22.2478 19.8293 21.8193 20.37 21.5611C20.8371 21.3336 21.3446 21.1969 21.851 21.0941C22.4033 20.9748 22.9557 20.8666 23.5025 20.7408C23.9072 20.65 24.1686 20.405 24.2485 19.9883C24.2714 19.8975 24.2769 19.8002 24.2769 19.7094V11.7688C24.2749 11.6781 24.2617 11.5881 24.2375 11.5008C24.1807 11.2788 24.021 11.1475 23.7935 11.1584C23.5594 11.1694 23.3319 11.2098 23.1044 11.2558C21.9932 11.4723 20.883 11.6944 19.7772 11.9219L14.3828 13.0102C14.3599 13.0156 14.3314 13.0277 14.3085 13.0277C13.9038 13.1414 13.7616 13.3241 13.7441 13.7452C13.7386 13.8075 13.7441 13.8709 13.7441 13.9333C13.7386 17.7275 13.7441 21.5217 13.7386 25.3148C13.7386 25.9306 13.6697 26.5344 13.4258 27.1031C13.0211 28.0372 12.3036 28.6245 11.3357 28.9034C10.8239 29.0524 10.2955 29.1365 9.76285 29.1539C8.36722 29.2053 7.20457 28.2767 6.96613 26.9041C6.7605 25.7195 7.30191 24.4431 8.64613 23.8733C9.17003 23.6567 9.71144 23.5375 10.2638 23.4237L11.5172 23.1678C12.075 23.0486 12.366 22.6953 12.3944 22.1255V8.95453C12.3944 8.77188 12.4174 8.59031 12.4568 8.41313C12.5596 7.9975 12.856 7.75797 13.2541 7.66062C13.6249 7.56328 14.0066 7.49547 14.3818 7.41563C15.4525 7.19906 16.5178 6.9825 17.5886 6.77141L20.8983 6.09875C21.8783 5.90516 22.8518 5.70609 23.8318 5.5125C24.1511 5.45016 24.476 5.38125 24.7997 5.35828C25.2493 5.31891 25.5632 5.60328 25.6091 6.05937C25.62 6.16766 25.6266 6.27594 25.6266 6.38422V14.7416L25.6288 14.7481Z" fill="#F8F8F8"/>
</g>
<defs>
<clipPath id="clip0_26_32">
<rect width="35" height="35" fill="white"/>
</clipPath>
</defs>
</svg>
