<svg width="35" height="35" viewBox="0 0 35 35" fill="none" xmlns="http://www.w3.org/2000/svg">
<path d="M31.7086 17.9826L18.5836 3.39931C18.0309 2.78389 16.9692 2.78389 16.4165 3.39931L3.29152 17.9826C3.1026 18.1921 2.97859 18.4518 2.93458 18.7304C2.89057 19.009 2.92844 19.2944 3.0436 19.5518C3.27693 20.0783 3.79902 20.4166 4.37506 20.4166H7.29172V30.6249C7.29172 31.0117 7.44537 31.3826 7.71886 31.6561C7.99235 31.9296 8.36328 32.0833 8.75006 32.0833H13.1251C13.5118 32.0833 13.8828 31.9296 14.1563 31.6561C14.4297 31.3826 14.5834 31.0117 14.5834 30.6249V24.7916H20.4167V30.6249C20.4167 31.0117 20.5704 31.3826 20.8439 31.6561C21.1173 31.9296 21.4883 32.0833 21.8751 32.0833H26.2501C26.6368 32.0833 27.0078 31.9296 27.2813 31.6561C27.5547 31.3826 27.7084 31.0117 27.7084 30.6249V20.4166H30.6251C30.9075 20.4178 31.1842 20.3368 31.4214 20.1835C31.6585 20.0302 31.846 19.8111 31.9609 19.5531C32.0757 19.2951 32.113 19.0092 32.0683 18.7304C32.0235 18.4515 31.8985 18.1917 31.7086 17.9826Z" fill="#F8F8F8"/>
</svg>
