<svg width="35" height="35" viewBox="0 0 35 35" fill="none" xmlns="http://www.w3.org/2000/svg">
<path d="M17.5 4.375C14.613 4.38405 11.8245 5.4253 9.63813 7.31063C7.9625 8.75437 6.74844 10.6356 6.43562 12.5234C2.76937 13.3328 0 16.5266 0 20.3831C0 24.8631 3.73625 28.4375 8.27094 28.4375H27.7528C31.7231 28.4375 35 25.3094 35 21.3784C35 17.7997 32.2831 14.8837 28.8006 14.3916C28.2691 8.74781 23.3844 4.375 17.5 4.375ZM22.6494 19.3681L18.2744 23.7431C18.1728 23.845 18.0521 23.9258 17.9192 23.9809C17.7863 24.0361 17.6439 24.0645 17.5 24.0645C17.3561 24.0645 17.2137 24.0361 17.0808 23.9809C16.9479 23.9258 16.8272 23.845 16.7256 23.7431L12.3506 19.3681C12.2489 19.2664 12.1683 19.1457 12.1132 19.0128C12.0582 18.88 12.0299 18.7376 12.0299 18.5938C12.0299 18.4499 12.0582 18.3075 12.1132 18.1747C12.1683 18.0418 12.2489 17.9211 12.3506 17.8194C12.556 17.614 12.8346 17.4986 13.125 17.4986C13.2688 17.4986 13.4112 17.5269 13.5441 17.582C13.677 17.637 13.7977 17.7177 13.8994 17.8194L16.4062 20.3284V12.0312C16.4062 11.7412 16.5215 11.463 16.7266 11.2579C16.9317 11.0527 17.2099 10.9375 17.5 10.9375C17.7901 10.9375 18.0683 11.0527 18.2734 11.2579C18.4785 11.463 18.5938 11.7412 18.5938 12.0312V20.3284L21.1006 17.8194C21.306 17.614 21.5846 17.4986 21.875 17.4986C22.1654 17.4986 22.444 17.614 22.6494 17.8194C22.8548 18.0248 22.9701 18.3033 22.9701 18.5938C22.9701 18.8842 22.8548 19.1627 22.6494 19.3681Z" fill="#F8F8F8"/>
</svg>
