<svg width="27" height="26" viewBox="0 0 27 26" fill="none" xmlns="http://www.w3.org/2000/svg">
<rect x="1.36328" y="0.575684" width="24.2961" height="24.2961" rx="5.5" fill="#E8C300" stroke="#E8E8E8"/>
<path d="M20.0666 11.6335H18.5999C18.5166 11.6335 18.4369 11.6706 18.3808 11.7355L14.4171 16.4169V5.96875C14.4171 5.88711 14.3519 5.82031 14.2723 5.82031H13.1858C13.1061 5.82031 13.041 5.88711 13.041 5.96875V16.4169L9.07725 11.7355C9.02293 11.6706 8.94326 11.6335 8.85815 11.6335H7.39146C7.26833 11.6335 7.20133 11.7838 7.28281 11.8784L13.2926 18.9756C13.347 19.0398 13.4141 19.0913 13.4896 19.1266C13.565 19.1619 13.647 19.1802 13.7299 19.1802C13.8129 19.1802 13.8948 19.1619 13.9703 19.1266C14.0457 19.0913 14.1129 19.0398 14.1672 18.9756L20.1753 11.8784C20.2567 11.7819 20.1897 11.6335 20.0666 11.6335Z" fill="#E8E8E8"/>
<rect x="4.11451" y="3.11451" width="0.229022" height="0.240338" rx="0.114511" fill="#E8C300" stroke="#E8E8E8" stroke-width="0.229022"/>
<path d="M20.0666 11.6335H18.5999C18.5166 11.6335 18.4369 11.6706 18.3808 11.7355L14.4171 16.4169V5.96875C14.4171 5.88711 14.3519 5.82031 14.2723 5.82031H13.1858C13.1061 5.82031 13.041 5.88711 13.041 5.96875V16.4169L9.07725 11.7355C9.02293 11.6706 8.94326 11.6335 8.85815 11.6335H7.39146C7.26833 11.6335 7.20133 11.7838 7.28281 11.8784L13.2926 18.9756C13.347 19.0398 13.4141 19.0913 13.4896 19.1266C13.565 19.1619 13.647 19.1802 13.7299 19.1802C13.8129 19.1802 13.8948 19.1619 13.9703 19.1266C14.0457 19.0913 14.1129 19.0398 14.1672 18.9756L20.1753 11.8784C20.2567 11.7819 20.1897 11.6335 20.0666 11.6335Z" fill="#E8E8E8"/>
<rect x="4.11451" y="3.11451" width="0.229022" height="0.240338" rx="0.114511" fill="#E8C300" stroke="#E8E8E8" stroke-width="0.229022"/>
</svg>
