<svg width="27" height="26" viewBox="0 0 27 26" fill="none" xmlns="http://www.w3.org/2000/svg">
<rect x="25.6594" y="24.7961" width="24.2961" height="24.2961" rx="5.5" transform="rotate(-180 25.6594 24.7961)" fill="#99CA49" stroke="#E8E8E8"/>
<path d="M7.00592 13.3665L8.50885 13.3665C8.5942 13.3665 8.67584 13.3294 8.73336 13.2645L12.795 8.58311L12.795 19.0312C12.795 19.1129 12.8618 19.1797 12.9434 19.1797L14.0567 19.1797C14.1383 19.1797 14.2051 19.1129 14.2051 19.0312L14.2051 8.58311L18.2668 13.2645C18.3224 13.3294 18.4041 13.3665 18.4913 13.3665L19.9942 13.3665C20.1204 13.3665 20.189 13.2162 20.1055 13.1216L13.9472 6.02441C13.8916 5.96019 13.8227 5.90869 13.7454 5.87339C13.6681 5.83809 13.5841 5.81982 13.4991 5.81982C13.4141 5.81982 13.3301 5.83809 13.2528 5.87339C13.1755 5.90869 13.1067 5.96019 13.051 6.02441L6.89459 13.1216C6.81109 13.2181 6.87974 13.3665 7.00592 13.3665Z" fill="#E8E8E8"/>
<rect x="22.9053" y="22.2545" width="0.23468" height="0.23468" rx="0.11734" transform="rotate(-180 22.9053 22.2545)" fill="#99CA49" stroke="#E8E8E8" stroke-width="0.23468"/>
<path d="M7.00592 13.3665L8.50885 13.3665C8.5942 13.3665 8.67584 13.3294 8.73336 13.2645L12.795 8.58311L12.795 19.0312C12.795 19.1129 12.8618 19.1797 12.9434 19.1797L14.0567 19.1797C14.1383 19.1797 14.2051 19.1129 14.2051 19.0312L14.2051 8.58311L18.2668 13.2645C18.3224 13.3294 18.4041 13.3665 18.4913 13.3665L19.9942 13.3665C20.1204 13.3665 20.189 13.2162 20.1055 13.1216L13.9472 6.02441C13.8916 5.96019 13.8227 5.90869 13.7454 5.87339C13.6681 5.83809 13.5841 5.81982 13.4991 5.81982C13.4141 5.81982 13.3301 5.83809 13.2528 5.87339C13.1755 5.90869 13.1067 5.96019 13.051 6.02441L6.89459 13.1216C6.81109 13.2181 6.87974 13.3665 7.00592 13.3665Z" fill="#E8E8E8"/>
<rect x="22.9053" y="22.2545" width="0.23468" height="0.23468" rx="0.11734" transform="rotate(-180 22.9053 22.2545)" fill="#99CA49" stroke="#E8E8E8" stroke-width="0.23468"/>
<rect x="25.6594" y="24.7961" width="24.2961" height="24.2961" rx="5.5" transform="rotate(-180 25.6594 24.7961)" fill="#99CA49" stroke="#E8E8E8"/>
<path d="M7.00592 13.3665L8.50885 13.3665C8.5942 13.3665 8.67584 13.3294 8.73336 13.2645L12.795 8.58311L12.795 19.0312C12.795 19.1129 12.8618 19.1797 12.9434 19.1797L14.0567 19.1797C14.1383 19.1797 14.2051 19.1129 14.2051 19.0312L14.2051 8.58311L18.2668 13.2645C18.3224 13.3294 18.4041 13.3665 18.4913 13.3665L19.9942 13.3665C20.1204 13.3665 20.189 13.2162 20.1055 13.1216L13.9472 6.02441C13.8916 5.96019 13.8227 5.90869 13.7454 5.87339C13.6681 5.83809 13.5841 5.81982 13.4991 5.81982C13.4141 5.81982 13.3301 5.83809 13.2528 5.87339C13.1755 5.90869 13.1067 5.96019 13.051 6.02441L6.89459 13.1216C6.81109 13.2181 6.87974 13.3665 7.00592 13.3665Z" fill="#E8E8E8"/>
<rect x="22.9053" y="22.2545" width="0.23468" height="0.23468" rx="0.11734" transform="rotate(-180 22.9053 22.2545)" fill="#99CA49" stroke="#E8E8E8" stroke-width="0.23468"/>
</svg>
