<svg width="49" height="15" viewBox="0 0 49 15" fill="none" xmlns="http://www.w3.org/2000/svg">
<path d="M14.419 12C14.3323 12 14.2587 11.974 14.198 11.922C14.146 11.8613 14.12 11.7877 14.12 11.701V4.057H11.624C11.5373 4.057 11.4637 4.031 11.403 3.979C11.351 3.91833 11.325 3.84467 11.325 3.758V3.212C11.325 3.11667 11.351 3.043 11.403 2.991C11.4637 2.93033 11.5373 2.9 11.624 2.9H17.89C17.9853 2.9 18.059 2.93033 18.111 2.991C18.1717 3.043 18.202 3.11667 18.202 3.212V3.758C18.202 3.84467 18.1717 3.91833 18.111 3.979C18.059 4.031 17.9853 4.057 17.89 4.057H15.407V11.701C15.407 11.7877 15.3767 11.8613 15.316 11.922C15.264 11.974 15.1903 12 15.095 12H14.419ZM20.7552 12.13C20.0965 12.13 19.5462 12.0043 19.1042 11.753C18.6622 11.5017 18.3242 11.155 18.0902 10.713C17.8562 10.2623 17.7262 9.751 17.7002 9.179C17.6915 9.03167 17.6872 8.84533 17.6872 8.62C17.6872 8.386 17.6915 8.19967 17.7002 8.061C17.7262 7.48033 17.8562 6.969 18.0902 6.527C18.3328 6.085 18.6752 5.73833 19.1172 5.487C19.5592 5.23567 20.1052 5.11 20.7552 5.11C21.4052 5.11 21.9512 5.23567 22.3932 5.487C22.8352 5.73833 23.1732 6.085 23.4072 6.527C23.6498 6.969 23.7842 7.48033 23.8102 8.061C23.8188 8.19967 23.8232 8.386 23.8232 8.62C23.8232 8.84533 23.8188 9.03167 23.8102 9.179C23.7842 9.751 23.6542 10.2623 23.4202 10.713C23.1862 11.155 22.8482 11.5017 22.4062 11.753C21.9642 12.0043 21.4138 12.13 20.7552 12.13ZM20.7552 11.129C21.2925 11.129 21.7215 10.96 22.0422 10.622C22.3628 10.2753 22.5362 9.77267 22.5622 9.114C22.5708 8.984 22.5752 8.81933 22.5752 8.62C22.5752 8.42067 22.5708 8.256 22.5622 8.126C22.5362 7.46733 22.3628 6.969 22.0422 6.631C21.7215 6.28433 21.2925 6.111 20.7552 6.111C20.2178 6.111 19.7845 6.28433 19.4552 6.631C19.1345 6.969 18.9655 7.46733 18.9482 8.126C18.9395 8.256 18.9352 8.42067 18.9352 8.62C18.9352 8.81933 18.9395 8.984 18.9482 9.114C18.9655 9.77267 19.1345 10.2753 19.4552 10.622C19.7845 10.96 20.2178 11.129 20.7552 11.129ZM27.661 12.13C27.1844 12.13 26.7727 12.0477 26.426 11.883C26.0794 11.7097 25.7934 11.48 25.568 11.194C25.3514 10.8993 25.1867 10.5657 25.074 10.193C24.97 9.82033 24.9094 9.426 24.892 9.01C24.8834 8.87133 24.879 8.74133 24.879 8.62C24.879 8.49867 24.8834 8.36867 24.892 8.23C24.9094 7.82267 24.97 7.43267 25.074 7.06C25.1867 6.68733 25.3514 6.35367 25.568 6.059C25.7934 5.76433 26.0794 5.53467 26.426 5.37C26.7727 5.19667 27.1844 5.11 27.661 5.11C28.1724 5.11 28.597 5.201 28.935 5.383C29.273 5.565 29.5504 5.79033 29.767 6.059V3.069C29.767 2.98233 29.793 2.913 29.845 2.861C29.9057 2.80033 29.9794 2.77 30.066 2.77H30.69C30.7767 2.77 30.846 2.80033 30.898 2.861C30.9587 2.913 30.989 2.98233 30.989 3.069V11.701C30.989 11.7877 30.9587 11.8613 30.898 11.922C30.846 11.974 30.7767 12 30.69 12H30.105C30.0097 12 29.936 11.974 29.884 11.922C29.832 11.8613 29.806 11.7877 29.806 11.701V11.155C29.5894 11.4323 29.3077 11.6663 28.961 11.857C28.6144 12.039 28.181 12.13 27.661 12.13ZM27.934 11.077C28.3674 11.077 28.714 10.9773 28.974 10.778C29.234 10.5787 29.429 10.3273 29.559 10.024C29.689 9.712 29.7584 9.39567 29.767 9.075C29.7757 8.93633 29.78 8.77167 29.78 8.581C29.78 8.38167 29.7757 8.21267 29.767 8.074C29.7584 7.77067 29.6847 7.47167 29.546 7.177C29.416 6.88233 29.2167 6.63967 28.948 6.449C28.688 6.25833 28.35 6.163 27.934 6.163C27.492 6.163 27.141 6.26267 26.881 6.462C26.621 6.65267 26.4347 6.90833 26.322 7.229C26.2094 7.541 26.1444 7.879 26.127 8.243C26.1184 8.49433 26.1184 8.74567 26.127 8.997C26.1444 9.361 26.2094 9.70333 26.322 10.024C26.4347 10.336 26.621 10.5917 26.881 10.791C27.141 10.9817 27.492 11.077 27.934 11.077ZM34.5475 12.13C34.1141 12.13 33.7198 12.0433 33.3645 11.87C33.0091 11.6967 32.7231 11.4627 32.5065 11.168C32.2898 10.8733 32.1815 10.5397 32.1815 10.167C32.1815 9.569 32.4241 9.09233 32.9095 8.737C33.3948 8.38167 34.0275 8.14767 34.8075 8.035L36.7445 7.762V7.385C36.7445 6.969 36.6231 6.644 36.3805 6.41C36.1465 6.176 35.7608 6.059 35.2235 6.059C34.8335 6.059 34.5171 6.137 34.2745 6.293C34.0405 6.449 33.8758 6.64833 33.7805 6.891C33.7285 7.021 33.6375 7.086 33.5075 7.086H32.9225C32.8271 7.086 32.7535 7.06 32.7015 7.008C32.6581 6.94733 32.6365 6.878 32.6365 6.8C32.6365 6.67 32.6841 6.50967 32.7795 6.319C32.8835 6.12833 33.0395 5.942 33.2475 5.76C33.4555 5.578 33.7198 5.42633 34.0405 5.305C34.3698 5.175 34.7685 5.11 35.2365 5.11C35.7565 5.11 36.1941 5.17933 36.5495 5.318C36.9048 5.448 37.1821 5.62567 37.3815 5.851C37.5895 6.07633 37.7368 6.332 37.8235 6.618C37.9188 6.904 37.9665 7.19433 37.9665 7.489V11.701C37.9665 11.7877 37.9361 11.8613 37.8755 11.922C37.8235 11.974 37.7541 12 37.6675 12H37.0695C36.9741 12 36.9005 11.974 36.8485 11.922C36.7965 11.8613 36.7705 11.7877 36.7705 11.701V11.142C36.6578 11.298 36.5061 11.454 36.3155 11.61C36.1248 11.7573 35.8865 11.883 35.6005 11.987C35.3145 12.0823 34.9635 12.13 34.5475 12.13ZM34.8205 11.155C35.1758 11.155 35.5008 11.0813 35.7955 10.934C36.0901 10.778 36.3198 10.5397 36.4845 10.219C36.6578 9.89833 36.7445 9.49533 36.7445 9.01V8.646L35.2365 8.867C34.6211 8.95367 34.1575 9.101 33.8455 9.309C33.5335 9.50833 33.3775 9.764 33.3775 10.076C33.3775 10.3187 33.4468 10.5223 33.5855 10.687C33.7328 10.843 33.9148 10.96 34.1315 11.038C34.3568 11.116 34.5865 11.155 34.8205 11.155ZM40.6187 14.47C40.5493 14.47 40.4887 14.444 40.4367 14.392C40.3847 14.34 40.3587 14.2793 40.3587 14.21C40.3587 14.1753 40.363 14.1407 40.3717 14.106C40.3803 14.0713 40.3977 14.028 40.4237 13.976L41.4247 11.597L38.9417 5.734C38.8983 5.63 38.8767 5.55633 38.8767 5.513C38.8767 5.435 38.9027 5.37 38.9547 5.318C39.0067 5.266 39.0717 5.24 39.1497 5.24H39.7867C39.8733 5.24 39.9427 5.26167 39.9947 5.305C40.0467 5.34833 40.0813 5.40033 40.0987 5.461L42.0747 10.193L44.1027 5.461C44.1287 5.40033 44.1633 5.34833 44.2067 5.305C44.2587 5.26167 44.3323 5.24 44.4277 5.24H45.0387C45.1167 5.24 45.1817 5.266 45.2337 5.318C45.2857 5.37 45.3117 5.43067 45.3117 5.5C45.3117 5.54333 45.29 5.62133 45.2467 5.734L41.5547 14.249C41.5287 14.3097 41.4897 14.3617 41.4377 14.405C41.3943 14.4483 41.325 14.47 41.2297 14.47H40.6187Z" fill="#75BC00"/>
<circle cx="4.5" cy="8.5" r="4.5" fill="#75BC00"/>
</svg>
