<svg width="35" height="35" viewBox="0 0 35 35" fill="none" xmlns="http://www.w3.org/2000/svg">
<path d="M17.5 2.9165C9.59433 2.9165 2.91663 9.59421 2.91663 17.4998C2.91663 25.4055 9.59433 32.0832 17.5 32.0832C25.4056 32.0832 32.0833 25.4055 32.0833 17.4998C32.0833 9.59421 25.4056 2.9165 17.5 2.9165ZM17.5 10.2082C20.0185 10.2082 21.875 12.0632 21.875 14.5832C21.875 17.1032 20.0185 18.9582 17.5 18.9582C14.9829 18.9582 13.125 17.1032 13.125 14.5832C13.125 12.0632 14.9829 10.2082 17.5 10.2082ZM10.0537 24.459C11.3618 22.534 13.5435 21.2507 16.0416 21.2507H18.9583C21.4579 21.2507 23.6381 22.534 24.9462 24.459C23.0825 26.454 20.4385 27.7082 17.5 27.7082C14.5614 27.7082 11.9175 26.454 10.0537 24.459Z" fill="#F8F8F8"/>
</svg>
