<svg width="110" height="39" viewBox="0 0 110 39" fill="none" xmlns="http://www.w3.org/2000/svg">
<rect width="110" height="39" rx="7" fill="#46CA18"/>
<path d="M38.1503 17C38.0143 17 37.9063 16.964 37.8263 16.892C37.7463 16.82 37.6903 16.736 37.6583 16.64L35.2103 8.96C35.1943 8.92 35.1863 8.884 35.1863 8.852C35.1863 8.788 35.2103 8.732 35.2583 8.684C35.3143 8.628 35.3783 8.6 35.4503 8.6H36.9383C37.0663 8.6 37.1663 8.636 37.2383 8.708C37.3103 8.78 37.3543 8.848 37.3703 8.912L39.0623 14.456L40.7663 8.912C40.7903 8.848 40.8343 8.78 40.8983 8.708C40.9703 8.636 41.0703 8.6 41.1983 8.6H42.6863C42.7583 8.6 42.8183 8.628 42.8663 8.684C42.9223 8.732 42.9503 8.788 42.9503 8.852C42.9503 8.884 42.9423 8.92 42.9263 8.96L40.4783 16.64C40.4463 16.736 40.3903 16.82 40.3103 16.892C40.2383 16.964 40.1303 17 39.9863 17H38.1503ZM44.8675 17.12C44.4355 17.12 44.0475 17.04 43.7035 16.88C43.3675 16.712 43.0995 16.488 42.8995 16.208C42.6995 15.928 42.5995 15.612 42.5995 15.26C42.5995 14.692 42.8315 14.244 43.2955 13.916C43.7595 13.58 44.3755 13.352 45.1435 13.232L46.6435 13.004V12.836C46.6435 12.548 46.5835 12.328 46.4635 12.176C46.3435 12.024 46.1235 11.948 45.8035 11.948C45.5795 11.948 45.3955 11.992 45.2515 12.08C45.1155 12.168 45.0075 12.288 44.9275 12.44C44.8555 12.544 44.7555 12.596 44.6275 12.596H43.2835C43.1955 12.596 43.1275 12.572 43.0795 12.524C43.0315 12.468 43.0115 12.404 43.0195 12.332C43.0195 12.188 43.0715 12.024 43.1755 11.84C43.2875 11.648 43.4555 11.46 43.6795 11.276C43.9035 11.092 44.1915 10.94 44.5435 10.82C44.8955 10.7 45.3195 10.64 45.8155 10.64C46.3355 10.64 46.7795 10.7 47.1475 10.82C47.5155 10.94 47.8115 11.108 48.0355 11.324C48.2675 11.54 48.4395 11.796 48.5515 12.092C48.6635 12.38 48.7195 12.7 48.7195 13.052V16.7C48.7195 16.788 48.6875 16.86 48.6235 16.916C48.5675 16.972 48.4995 17 48.4195 17H47.0275C46.9395 17 46.8675 16.972 46.8115 16.916C46.7555 16.86 46.7275 16.788 46.7275 16.7V16.28C46.6235 16.432 46.4835 16.572 46.3075 16.7C46.1315 16.828 45.9235 16.928 45.6835 17C45.4515 17.08 45.1795 17.12 44.8675 17.12ZM45.4315 15.752C45.6635 15.752 45.8715 15.704 46.0555 15.608C46.2475 15.504 46.3955 15.348 46.4995 15.14C46.6115 14.924 46.6675 14.656 46.6675 14.336V14.168L45.6475 14.348C45.2715 14.412 44.9955 14.512 44.8195 14.648C44.6515 14.776 44.5675 14.928 44.5675 15.104C44.5675 15.24 44.6075 15.356 44.6875 15.452C44.7675 15.548 44.8715 15.624 44.9995 15.68C45.1275 15.728 45.2715 15.752 45.4315 15.752ZM50.1336 17C50.0456 17 49.9736 16.972 49.9176 16.916C49.8616 16.86 49.8336 16.788 49.8336 16.7V8.78C49.8336 8.692 49.8616 8.62 49.9176 8.564C49.9736 8.508 50.0456 8.48 50.1336 8.48H51.5496C51.6376 8.48 51.7096 8.508 51.7656 8.564C51.8216 8.62 51.8496 8.692 51.8496 8.78V16.7C51.8496 16.788 51.8216 16.86 51.7656 16.916C51.7096 16.972 51.6376 17 51.5496 17H50.1336ZM53.7374 17C53.6494 17 53.5774 16.972 53.5214 16.916C53.4654 16.86 53.4374 16.788 53.4374 16.7V11.06C53.4374 10.972 53.4654 10.9 53.5214 10.844C53.5774 10.788 53.6494 10.76 53.7374 10.76H55.1534C55.2334 10.76 55.3014 10.788 55.3574 10.844C55.4214 10.9 55.4534 10.972 55.4534 11.06V16.7C55.4534 16.788 55.4214 16.86 55.3574 16.916C55.3014 16.972 55.2334 17 55.1534 17H53.7374ZM53.7254 9.86C53.6374 9.86 53.5654 9.832 53.5094 9.776C53.4534 9.72 53.4254 9.648 53.4254 9.56V8.492C53.4254 8.404 53.4534 8.332 53.5094 8.276C53.5654 8.212 53.6374 8.18 53.7254 8.18H55.1534C55.2414 8.18 55.3134 8.212 55.3694 8.276C55.4334 8.332 55.4654 8.404 55.4654 8.492V9.56C55.4654 9.648 55.4334 9.72 55.3694 9.776C55.3134 9.832 55.2414 9.86 55.1534 9.86H53.7254ZM58.9473 17.12C58.5633 17.12 58.2153 17.06 57.9033 16.94C57.5993 16.812 57.3353 16.628 57.1113 16.388C56.8953 16.14 56.7273 15.844 56.6073 15.5C56.4873 15.148 56.4193 14.748 56.4033 14.3C56.3953 14.14 56.3913 14 56.3913 13.88C56.3913 13.752 56.3953 13.612 56.4033 13.46C56.4193 13.028 56.4873 12.64 56.6073 12.296C56.7273 11.952 56.8953 11.656 57.1113 11.408C57.3273 11.16 57.5913 10.972 57.9033 10.844C58.2153 10.708 58.5633 10.64 58.9473 10.64C59.3473 10.64 59.6913 10.708 59.9793 10.844C60.2673 10.972 60.5113 11.14 60.7113 11.348V8.78C60.7113 8.692 60.7393 8.62 60.7953 8.564C60.8513 8.508 60.9233 8.48 61.0113 8.48H62.4753C62.5553 8.48 62.6233 8.508 62.6793 8.564C62.7433 8.62 62.7753 8.692 62.7753 8.78V16.7C62.7753 16.788 62.7433 16.86 62.6793 16.916C62.6233 16.972 62.5553 17 62.4753 17H61.1193C61.0313 17 60.9593 16.972 60.9033 16.916C60.8473 16.86 60.8193 16.788 60.8193 16.7V16.316C60.6273 16.548 60.3793 16.74 60.0753 16.892C59.7713 17.044 59.3953 17.12 58.9473 17.12ZM59.5953 15.512C59.8673 15.512 60.0793 15.456 60.2313 15.344C60.3913 15.224 60.5073 15.072 60.5793 14.888C60.6593 14.704 60.7033 14.504 60.7113 14.288C60.7193 14.128 60.7233 13.976 60.7233 13.832C60.7233 13.688 60.7193 13.54 60.7113 13.388C60.7033 13.188 60.6593 13.004 60.5793 12.836C60.4993 12.66 60.3793 12.52 60.2193 12.416C60.0593 12.304 59.8513 12.248 59.5953 12.248C59.3313 12.248 59.1193 12.304 58.9593 12.416C58.8073 12.528 58.6993 12.68 58.6353 12.872C58.5713 13.064 58.5313 13.276 58.5153 13.508C58.4913 13.756 58.4913 14.004 58.5153 14.252C58.5313 14.484 58.5713 14.696 58.6353 14.888C58.6993 15.08 58.8073 15.232 58.9593 15.344C59.1193 15.456 59.3313 15.512 59.5953 15.512ZM66.8296 17.12C65.8856 17.12 65.1336 16.864 64.5736 16.352C64.0136 15.84 63.7216 15.08 63.6976 14.072C63.6976 14.016 63.6976 13.944 63.6976 13.856C63.6976 13.768 63.6976 13.7 63.6976 13.652C63.7216 13.02 63.8616 12.48 64.1176 12.032C64.3816 11.576 64.7416 11.232 65.1976 11C65.6616 10.76 66.2016 10.64 66.8176 10.64C67.5216 10.64 68.1016 10.78 68.5576 11.06C69.0216 11.34 69.3696 11.72 69.6016 12.2C69.8336 12.68 69.9496 13.228 69.9496 13.844V14.132C69.9496 14.22 69.9176 14.292 69.8536 14.348C69.7976 14.404 69.7296 14.432 69.6496 14.432H65.8096C65.8096 14.44 65.8096 14.452 65.8096 14.468C65.8096 14.484 65.8096 14.5 65.8096 14.516C65.8176 14.748 65.8576 14.96 65.9296 15.152C66.0016 15.344 66.1136 15.496 66.2656 15.608C66.4176 15.72 66.6016 15.776 66.8176 15.776C66.9776 15.776 67.1096 15.752 67.2136 15.704C67.3256 15.648 67.4176 15.588 67.4896 15.524C67.5616 15.452 67.6176 15.392 67.6576 15.344C67.7296 15.264 67.7856 15.216 67.8256 15.2C67.8736 15.176 67.9456 15.164 68.0416 15.164H69.5296C69.6096 15.164 69.6736 15.188 69.7216 15.236C69.7776 15.276 69.8016 15.336 69.7936 15.416C69.7856 15.552 69.7176 15.716 69.5896 15.908C69.4616 16.1 69.2736 16.292 69.0256 16.484C68.7856 16.668 68.4816 16.82 68.1136 16.94C67.7456 17.06 67.3176 17.12 66.8296 17.12ZM65.8096 13.244H67.8376V13.22C67.8376 12.964 67.7976 12.74 67.7176 12.548C67.6456 12.356 67.5296 12.208 67.3696 12.104C67.2176 12 67.0336 11.948 66.8176 11.948C66.6016 11.948 66.4176 12 66.2656 12.104C66.1216 12.208 66.0096 12.356 65.9296 12.548C65.8496 12.74 65.8096 12.964 65.8096 13.22V13.244ZM71.1346 17C71.0466 17 70.9746 16.972 70.9186 16.916C70.8626 16.86 70.8346 16.788 70.8346 16.7V11.06C70.8346 10.98 70.8626 10.912 70.9186 10.856C70.9746 10.792 71.0466 10.76 71.1346 10.76H72.5146C72.6026 10.76 72.6746 10.792 72.7306 10.856C72.7866 10.912 72.8146 10.98 72.8146 11.06V11.54C73.0306 11.292 73.2866 11.1 73.5826 10.964C73.8866 10.828 74.2266 10.76 74.6026 10.76H75.1306C75.2106 10.76 75.2786 10.788 75.3346 10.844C75.3986 10.9 75.4306 10.972 75.4306 11.06V12.296C75.4306 12.376 75.3986 12.448 75.3346 12.512C75.2786 12.568 75.2106 12.596 75.1306 12.596H73.9666C73.6386 12.596 73.3826 12.688 73.1986 12.872C73.0226 13.048 72.9346 13.3 72.9346 13.628V16.7C72.9346 16.788 72.9026 16.86 72.8386 16.916C72.7826 16.972 72.7106 17 72.6226 17H71.1346ZM26.0031 31.12C25.0591 31.12 24.3071 30.864 23.7471 30.352C23.1871 29.84 22.8951 29.08 22.8711 28.072C22.8711 28.016 22.8711 27.944 22.8711 27.856C22.8711 27.768 22.8711 27.7 22.8711 27.652C22.8951 27.02 23.0351 26.48 23.2911 26.032C23.5551 25.576 23.9151 25.232 24.3711 25C24.8351 24.76 25.3751 24.64 25.9911 24.64C26.6951 24.64 27.2751 24.78 27.7311 25.06C28.1951 25.34 28.5431 25.72 28.7751 26.2C29.0071 26.68 29.1231 27.228 29.1231 27.844V28.132C29.1231 28.22 29.0911 28.292 29.0271 28.348C28.9711 28.404 28.9031 28.432 28.8231 28.432H24.9831C24.9831 28.44 24.9831 28.452 24.9831 28.468C24.9831 28.484 24.9831 28.5 24.9831 28.516C24.9911 28.748 25.0311 28.96 25.1031 29.152C25.1751 29.344 25.2871 29.496 25.4391 29.608C25.5911 29.72 25.7751 29.776 25.9911 29.776C26.1511 29.776 26.2831 29.752 26.3871 29.704C26.4991 29.648 26.5911 29.588 26.6631 29.524C26.7351 29.452 26.7911 29.392 26.8311 29.344C26.9031 29.264 26.9591 29.216 26.9991 29.2C27.0471 29.176 27.1191 29.164 27.2151 29.164H28.7031C28.7831 29.164 28.8471 29.188 28.8951 29.236C28.9511 29.276 28.9751 29.336 28.9671 29.416C28.9591 29.552 28.8911 29.716 28.7631 29.908C28.6351 30.1 28.4471 30.292 28.1991 30.484C27.9591 30.668 27.6551 30.82 27.2871 30.94C26.9191 31.06 26.4911 31.12 26.0031 31.12ZM24.9831 27.244H27.0111V27.22C27.0111 26.964 26.9711 26.74 26.8911 26.548C26.8191 26.356 26.7031 26.208 26.5431 26.104C26.3911 26 26.2071 25.948 25.9911 25.948C25.7751 25.948 25.5911 26 25.4391 26.104C25.2951 26.208 25.1831 26.356 25.1031 26.548C25.0231 26.74 24.9831 26.964 24.9831 27.22V27.244ZM25.2951 23.86C25.1671 23.86 25.1031 23.796 25.1031 23.668C25.1031 23.604 25.1231 23.552 25.1631 23.512L26.2191 22.228C26.2991 22.132 26.3671 22.072 26.4231 22.048C26.4791 22.016 26.5591 22 26.6631 22H28.2351C28.3871 22 28.4631 22.08 28.4631 22.24C28.4631 22.296 28.4431 22.344 28.4031 22.384L26.8191 23.692C26.7551 23.748 26.6911 23.792 26.6271 23.824C26.5631 23.848 26.4751 23.86 26.3631 23.86H25.2951ZM31.9937 31C31.8737 31 31.7857 30.972 31.7297 30.916C31.6737 30.852 31.6257 30.78 31.5857 30.7L29.3177 25.132C29.3017 25.1 29.2937 25.064 29.2937 25.024C29.2937 24.952 29.3177 24.892 29.3657 24.844C29.4217 24.788 29.4897 24.76 29.5697 24.76H30.9257C31.0297 24.76 31.1097 24.788 31.1657 24.844C31.2217 24.9 31.2577 24.956 31.2737 25.012L32.6297 28.696L33.9977 25.012C34.0137 24.956 34.0497 24.9 34.1057 24.844C34.1617 24.788 34.2417 24.76 34.3457 24.76H35.7017C35.7737 24.76 35.8377 24.788 35.8937 24.844C35.9497 24.892 35.9777 24.952 35.9777 25.024C35.9777 25.064 35.9697 25.1 35.9537 25.132L33.6857 30.7C33.6537 30.78 33.6057 30.852 33.5417 30.916C33.4857 30.972 33.3937 31 33.2657 31H31.9937ZM39.316 31.12C38.372 31.12 37.62 30.864 37.06 30.352C36.5 29.84 36.208 29.08 36.184 28.072C36.184 28.016 36.184 27.944 36.184 27.856C36.184 27.768 36.184 27.7 36.184 27.652C36.208 27.02 36.348 26.48 36.604 26.032C36.868 25.576 37.228 25.232 37.684 25C38.148 24.76 38.688 24.64 39.304 24.64C40.008 24.64 40.588 24.78 41.044 25.06C41.508 25.34 41.856 25.72 42.088 26.2C42.32 26.68 42.436 27.228 42.436 27.844V28.132C42.436 28.22 42.404 28.292 42.34 28.348C42.284 28.404 42.216 28.432 42.136 28.432H38.296C38.296 28.44 38.296 28.452 38.296 28.468C38.296 28.484 38.296 28.5 38.296 28.516C38.304 28.748 38.344 28.96 38.416 29.152C38.488 29.344 38.6 29.496 38.752 29.608C38.904 29.72 39.088 29.776 39.304 29.776C39.464 29.776 39.596 29.752 39.7 29.704C39.812 29.648 39.904 29.588 39.976 29.524C40.048 29.452 40.104 29.392 40.144 29.344C40.216 29.264 40.272 29.216 40.312 29.2C40.36 29.176 40.432 29.164 40.528 29.164H42.016C42.096 29.164 42.16 29.188 42.208 29.236C42.264 29.276 42.288 29.336 42.28 29.416C42.272 29.552 42.204 29.716 42.076 29.908C41.948 30.1 41.76 30.292 41.512 30.484C41.272 30.668 40.968 30.82 40.6 30.94C40.232 31.06 39.804 31.12 39.316 31.12ZM38.296 27.244H40.324V27.22C40.324 26.964 40.284 26.74 40.204 26.548C40.132 26.356 40.016 26.208 39.856 26.104C39.704 26 39.52 25.948 39.304 25.948C39.088 25.948 38.904 26 38.752 26.104C38.608 26.208 38.496 26.356 38.416 26.548C38.336 26.74 38.296 26.964 38.296 27.22V27.244ZM38.608 23.86C38.48 23.86 38.416 23.796 38.416 23.668C38.416 23.604 38.436 23.552 38.476 23.512L39.532 22.228C39.612 22.132 39.68 22.072 39.736 22.048C39.792 22.016 39.872 22 39.976 22H41.548C41.7 22 41.776 22.08 41.776 22.24C41.776 22.296 41.756 22.344 41.716 22.384L40.132 23.692C40.068 23.748 40.004 23.792 39.94 23.824C39.876 23.848 39.788 23.86 39.676 23.86H38.608ZM43.621 31C43.533 31 43.461 30.972 43.405 30.916C43.349 30.86 43.321 30.788 43.321 30.7V25.06C43.321 24.972 43.349 24.9 43.405 24.844C43.461 24.788 43.533 24.76 43.621 24.76H45.001C45.089 24.76 45.161 24.788 45.217 24.844C45.273 24.9 45.301 24.972 45.301 25.06V25.516C45.509 25.268 45.781 25.06 46.117 24.892C46.453 24.724 46.849 24.64 47.305 24.64C47.769 24.64 48.177 24.744 48.529 24.952C48.889 25.16 49.169 25.468 49.369 25.876C49.577 26.276 49.681 26.768 49.681 27.352V30.7C49.681 30.788 49.649 30.86 49.585 30.916C49.529 30.972 49.461 31 49.381 31H47.869C47.789 31 47.717 30.972 47.653 30.916C47.597 30.86 47.569 30.788 47.569 30.7V27.424C47.569 27.048 47.477 26.76 47.293 26.56C47.117 26.352 46.853 26.248 46.501 26.248C46.173 26.248 45.909 26.352 45.709 26.56C45.517 26.76 45.421 27.048 45.421 27.424V30.7C45.421 30.788 45.389 30.86 45.325 30.916C45.269 30.972 45.201 31 45.121 31H43.621ZM53.6603 31.12C52.7163 31.12 51.9643 30.864 51.4043 30.352C50.8443 29.84 50.5523 29.08 50.5283 28.072C50.5283 28.016 50.5283 27.944 50.5283 27.856C50.5283 27.768 50.5283 27.7 50.5283 27.652C50.5523 27.02 50.6923 26.48 50.9483 26.032C51.2123 25.576 51.5723 25.232 52.0283 25C52.4923 24.76 53.0323 24.64 53.6483 24.64C54.3523 24.64 54.9323 24.78 55.3883 25.06C55.8523 25.34 56.2003 25.72 56.4323 26.2C56.6643 26.68 56.7803 27.228 56.7803 27.844V28.132C56.7803 28.22 56.7483 28.292 56.6843 28.348C56.6283 28.404 56.5603 28.432 56.4803 28.432H52.6403C52.6403 28.44 52.6403 28.452 52.6403 28.468C52.6403 28.484 52.6403 28.5 52.6403 28.516C52.6483 28.748 52.6883 28.96 52.7603 29.152C52.8323 29.344 52.9443 29.496 53.0963 29.608C53.2483 29.72 53.4323 29.776 53.6483 29.776C53.8083 29.776 53.9403 29.752 54.0443 29.704C54.1563 29.648 54.2483 29.588 54.3203 29.524C54.3923 29.452 54.4483 29.392 54.4883 29.344C54.5603 29.264 54.6163 29.216 54.6563 29.2C54.7043 29.176 54.7763 29.164 54.8723 29.164H56.3603C56.4403 29.164 56.5043 29.188 56.5523 29.236C56.6083 29.276 56.6323 29.336 56.6243 29.416C56.6163 29.552 56.5483 29.716 56.4203 29.908C56.2923 30.1 56.1043 30.292 55.8563 30.484C55.6163 30.668 55.3123 30.82 54.9443 30.94C54.5763 31.06 54.1483 31.12 53.6603 31.12ZM52.6403 27.244H54.6683V27.22C54.6683 26.964 54.6283 26.74 54.5483 26.548C54.4763 26.356 54.3603 26.208 54.2003 26.104C54.0483 26 53.8643 25.948 53.6483 25.948C53.4323 25.948 53.2483 26 53.0963 26.104C52.9523 26.208 52.8403 26.356 52.7603 26.548C52.6803 26.74 52.6403 26.964 52.6403 27.22V27.244ZM57.9653 31C57.8773 31 57.8053 30.972 57.7493 30.916C57.6933 30.86 57.6653 30.788 57.6653 30.7V25.06C57.6653 24.972 57.6933 24.9 57.7493 24.844C57.8053 24.788 57.8773 24.76 57.9653 24.76H59.2733C59.3613 24.76 59.4333 24.788 59.4893 24.844C59.5453 24.9 59.5733 24.972 59.5733 25.06V25.468C59.7333 25.252 59.9573 25.064 60.2453 24.904C60.5333 24.736 60.8733 24.648 61.2653 24.64C62.1853 24.624 62.8173 24.972 63.1613 25.684C63.3453 25.38 63.6093 25.132 63.9533 24.94C64.2973 24.74 64.6733 24.64 65.0813 24.64C65.4973 24.64 65.8693 24.736 66.1973 24.928C66.5333 25.112 66.8013 25.4 67.0013 25.792C67.2013 26.176 67.3013 26.676 67.3013 27.292V30.7C67.3013 30.788 67.2693 30.86 67.2053 30.916C67.1493 30.972 67.0813 31 67.0013 31H65.6093C65.5213 31 65.4453 30.972 65.3813 30.916C65.3253 30.86 65.2973 30.788 65.2973 30.7V27.376C65.2973 27.096 65.2573 26.876 65.1773 26.716C65.0973 26.548 64.9893 26.428 64.8533 26.356C64.7173 26.284 64.5613 26.248 64.3853 26.248C64.2413 26.248 64.0973 26.284 63.9533 26.356C63.8173 26.428 63.7053 26.548 63.6173 26.716C63.5373 26.876 63.4973 27.096 63.4973 27.376V30.7C63.4973 30.788 63.4693 30.86 63.4133 30.916C63.3573 30.972 63.2853 31 63.1973 31H61.8053C61.7173 31 61.6453 30.972 61.5893 30.916C61.5333 30.86 61.5053 30.788 61.5053 30.7V27.376C61.5053 27.096 61.4613 26.876 61.3733 26.716C61.2853 26.548 61.1733 26.428 61.0373 26.356C60.9013 26.284 60.7493 26.248 60.5813 26.248C60.4373 26.248 60.2933 26.284 60.1493 26.356C60.0133 26.428 59.9013 26.548 59.8133 26.716C59.7333 26.876 59.6933 27.092 59.6933 27.364V30.7C59.6933 30.788 59.6613 30.86 59.5973 30.916C59.5413 30.972 59.4693 31 59.3813 31H57.9653ZM71.2857 31.12C70.3417 31.12 69.5897 30.864 69.0297 30.352C68.4697 29.84 68.1777 29.08 68.1537 28.072C68.1537 28.016 68.1537 27.944 68.1537 27.856C68.1537 27.768 68.1537 27.7 68.1537 27.652C68.1777 27.02 68.3177 26.48 68.5737 26.032C68.8377 25.576 69.1977 25.232 69.6537 25C70.1177 24.76 70.6577 24.64 71.2737 24.64C71.9777 24.64 72.5577 24.78 73.0137 25.06C73.4777 25.34 73.8257 25.72 74.0577 26.2C74.2897 26.68 74.4057 27.228 74.4057 27.844V28.132C74.4057 28.22 74.3737 28.292 74.3097 28.348C74.2537 28.404 74.1857 28.432 74.1057 28.432H70.2657C70.2657 28.44 70.2657 28.452 70.2657 28.468C70.2657 28.484 70.2657 28.5 70.2657 28.516C70.2737 28.748 70.3137 28.96 70.3857 29.152C70.4577 29.344 70.5697 29.496 70.7217 29.608C70.8737 29.72 71.0577 29.776 71.2737 29.776C71.4337 29.776 71.5657 29.752 71.6697 29.704C71.7817 29.648 71.8737 29.588 71.9457 29.524C72.0177 29.452 72.0737 29.392 72.1137 29.344C72.1857 29.264 72.2417 29.216 72.2817 29.2C72.3297 29.176 72.4017 29.164 72.4977 29.164H73.9857C74.0657 29.164 74.1297 29.188 74.1777 29.236C74.2337 29.276 74.2577 29.336 74.2497 29.416C74.2417 29.552 74.1737 29.716 74.0457 29.908C73.9177 30.1 73.7297 30.292 73.4817 30.484C73.2417 30.668 72.9377 30.82 72.5697 30.94C72.2017 31.06 71.7737 31.12 71.2857 31.12ZM70.2657 27.244H72.2937V27.22C72.2937 26.964 72.2537 26.74 72.1737 26.548C72.1017 26.356 71.9857 26.208 71.8257 26.104C71.6737 26 71.4897 25.948 71.2737 25.948C71.0577 25.948 70.8737 26 70.7217 26.104C70.5777 26.208 70.4657 26.356 70.3857 26.548C70.3057 26.74 70.2657 26.964 70.2657 27.22V27.244ZM75.5907 31C75.5027 31 75.4307 30.972 75.3747 30.916C75.3187 30.86 75.2907 30.788 75.2907 30.7V25.06C75.2907 24.972 75.3187 24.9 75.3747 24.844C75.4307 24.788 75.5027 24.76 75.5907 24.76H76.9707C77.0587 24.76 77.1307 24.788 77.1867 24.844C77.2427 24.9 77.2707 24.972 77.2707 25.06V25.516C77.4787 25.268 77.7507 25.06 78.0867 24.892C78.4227 24.724 78.8187 24.64 79.2747 24.64C79.7387 24.64 80.1467 24.744 80.4987 24.952C80.8587 25.16 81.1387 25.468 81.3387 25.876C81.5467 26.276 81.6507 26.768 81.6507 27.352V30.7C81.6507 30.788 81.6187 30.86 81.5547 30.916C81.4987 30.972 81.4307 31 81.3507 31H79.8387C79.7587 31 79.6867 30.972 79.6227 30.916C79.5667 30.86 79.5387 30.788 79.5387 30.7V27.424C79.5387 27.048 79.4467 26.76 79.2627 26.56C79.0867 26.352 78.8227 26.248 78.4707 26.248C78.1427 26.248 77.8787 26.352 77.6787 26.56C77.4867 26.76 77.3907 27.048 77.3907 27.424V30.7C77.3907 30.788 77.3587 30.86 77.2947 30.916C77.2387 30.972 77.1707 31 77.0907 31H75.5907ZM85.8834 31C85.3714 31 84.9274 30.92 84.5514 30.76C84.1834 30.592 83.8994 30.336 83.6994 29.992C83.4994 29.64 83.3994 29.188 83.3994 28.636V26.332H82.4634C82.3754 26.332 82.2994 26.304 82.2354 26.248C82.1794 26.192 82.1514 26.12 82.1514 26.032V25.06C82.1514 24.972 82.1794 24.9 82.2354 24.844C82.2994 24.788 82.3754 24.76 82.4634 24.76H83.3994V22.78C83.3994 22.692 83.4274 22.62 83.4834 22.564C83.5474 22.508 83.6194 22.48 83.6994 22.48H85.0914C85.1794 22.48 85.2514 22.508 85.3074 22.564C85.3634 22.62 85.3914 22.692 85.3914 22.78V24.76H86.8914C86.9794 24.76 87.0514 24.788 87.1074 24.844C87.1634 24.9 87.1914 24.972 87.1914 25.06V26.032C87.1914 26.12 87.1634 26.192 87.1074 26.248C87.0514 26.304 86.9794 26.332 86.8914 26.332H85.3914V28.468C85.3914 28.74 85.4434 28.956 85.5474 29.116C85.6514 29.276 85.8274 29.356 86.0754 29.356H86.9994C87.0874 29.356 87.1594 29.384 87.2154 29.44C87.2714 29.496 87.2994 29.568 87.2994 29.656V30.7C87.2994 30.788 87.2714 30.86 87.2154 30.916C87.1594 30.972 87.0874 31 86.9994 31H85.8834Z" fill="#F2F2F2"/>
</svg>
