<svg width="138" height="29" viewBox="0 0 138 29" fill="none" xmlns="http://www.w3.org/2000/svg">
<path fill-rule="evenodd" clip-rule="evenodd" d="M10.4628 5.16293L10.0453 7.36068C14.1015 5.12962 19.3588 5.94879 22.4516 9.52225C25.9194 13.5287 25.3534 19.4802 21.1876 22.8153L19.8794 21.304C23.1774 18.6637 23.6256 13.9521 20.88 10.7803C18.3679 7.87777 14.052 7.27054 10.81 9.21175L13.3417 10.0489C13.8713 10.2241 14.1518 10.7859 13.9678 11.3039C13.7838 11.8218 13.2055 12.0997 12.6759 11.9245L8.92885 10.6855C8.0754 10.4033 7.5667 9.55379 7.73109 8.68644L8.46595 4.81735C8.56859 4.27899 9.09816 3.91992 9.6494 4.01537C10.2007 4.11078 10.565 4.6246 10.4628 5.16293ZM6.05159 14.5843L12.1071 18.1402L6.19471 21.9969L6.05159 14.5843ZM13.5175 19.5962C14.6249 18.8737 14.5857 17.2919 13.4435 16.6211L6.7991 12.7193C5.56002 11.9916 3.97335 12.8663 4.00034 14.2626L4.15696 22.3962C4.18436 23.801 5.82093 24.6167 7.03015 23.828L8.60702 22.7993C12.175 25.679 17.4814 25.7822 21.1876 22.8153L19.8794 21.304C17.1027 23.5268 13.1912 23.5728 10.3859 21.6391L13.5175 19.5962Z" fill="#2E2E2E"/>
<path d="M47.3 24H45.012L44.362 20.282C44.1713 19.242 43.8333 18.3753 43.348 17.682C42.88 16.9887 42.3427 16.4167 41.736 15.966C41.4587 16.018 41.1727 16.0527 40.878 16.07C40.6007 16.07 40.3233 16.07 40.046 16.07L38.564 16.044V14.224H40.02C40.5747 14.224 41.1293 14.1807 41.684 14.094C42.2387 13.99 42.7413 13.7993 43.192 13.522C43.6427 13.262 44.0067 12.9067 44.284 12.456C44.5787 11.988 44.726 11.39 44.726 10.662C44.726 10.0207 44.5787 9.48334 44.284 9.05001C44.0067 8.61668 43.6427 8.27001 43.192 8.01001C42.7413 7.75001 42.2387 7.56801 41.684 7.46401C41.1293 7.34268 40.5747 7.28201 40.02 7.28201H37.342V24H35.314V5.54001H40.046C40.8607 5.54001 41.6753 5.61801 42.49 5.77401C43.322 5.91268 44.0587 6.17268 44.7 6.55401C45.3587 6.91801 45.8873 7.43801 46.286 8.11401C46.702 8.77268 46.91 9.62201 46.91 10.662C46.91 11.8753 46.624 12.8633 46.052 13.626C45.4973 14.3713 44.804 14.9347 43.972 15.316C44.5093 15.784 44.986 16.3473 45.402 17.006C45.818 17.6473 46.13 18.462 46.338 19.45L47.3 24ZM63.4679 17.76H54.2119C54.2639 18.5227 54.4806 19.3113 54.8619 20.126C55.2433 20.9233 55.9279 21.5907 56.9159 22.128C57.1239 22.2667 57.4533 22.388 57.9039 22.492C58.3719 22.596 58.9006 22.6567 59.4899 22.674C60.0619 22.674 60.6599 22.6133 61.2839 22.492C61.9253 22.3707 62.5319 22.1367 63.1039 21.79V23.324C62.3413 23.7227 61.5266 23.9827 60.6599 24.104C59.8106 24.2427 58.9699 24.2687 58.1379 24.182C57.3059 24.0953 56.5346 23.9133 55.8239 23.636C55.1133 23.3413 54.5326 22.96 54.0819 22.492C53.4926 21.92 53.0073 21.2007 52.6259 20.334C52.2446 19.45 52.0539 18.4273 52.0539 17.266C52.0539 15.394 52.5999 13.8687 53.6919 12.69C54.8013 11.494 56.3613 10.896 58.3719 10.896C59.2213 10.896 59.9666 11.0607 60.6079 11.39C61.2493 11.7193 61.7779 12.144 62.1939 12.664C62.6099 13.184 62.9219 13.7733 63.1299 14.432C63.3553 15.0733 63.4679 15.7233 63.4679 16.382V17.76ZM61.3619 16.226C61.3619 15.8447 61.3099 15.4373 61.2059 15.004C61.1193 14.5533 60.9546 14.1373 60.7119 13.756C60.4866 13.3747 60.1746 13.0627 59.7759 12.82C59.3773 12.56 58.8833 12.43 58.2939 12.43C57.1846 12.43 56.2486 12.768 55.4859 13.444C54.7406 14.1027 54.3073 15.03 54.1859 16.226H61.3619ZM71.1741 24H69.1981V5.54001H71.1741V24ZM80.0003 8.11401H77.5043V5.61801H80.0003V8.11401ZM79.8183 24.078H77.7383V11.338H79.8183V24.078ZM96.8865 11.208L91.8945 23.974H90.0485L84.5885 11.208H86.6425L90.9585 21.452L94.9625 11.208H96.8865ZM112.259 17.76H103.003C103.055 18.5227 103.271 19.3113 103.653 20.126C104.034 20.9233 104.719 21.5907 105.707 22.128C105.915 22.2667 106.244 22.388 106.695 22.492C107.163 22.596 107.691 22.6567 108.281 22.674C108.853 22.674 109.451 22.6133 110.075 22.492C110.716 22.3707 111.323 22.1367 111.895 21.79V23.324C111.132 23.7227 110.317 23.9827 109.451 24.104C108.601 24.2427 107.761 24.2687 106.929 24.182C106.097 24.0953 105.325 23.9133 104.615 23.636C103.904 23.3413 103.323 22.96 102.873 22.492C102.283 21.92 101.798 21.2007 101.417 20.334C101.035 19.45 100.845 18.4273 100.845 17.266C100.845 15.394 101.391 13.8687 102.483 12.69C103.592 11.494 105.152 10.896 107.163 10.896C108.012 10.896 108.757 11.0607 109.399 11.39C110.04 11.7193 110.569 12.144 110.985 12.664C111.401 13.184 111.713 13.7733 111.921 14.432C112.146 15.0733 112.259 15.7233 112.259 16.382V17.76ZM110.153 16.226C110.153 15.8447 110.101 15.4373 109.997 15.004C109.91 14.5533 109.745 14.1373 109.503 13.756C109.277 13.3747 108.965 13.0627 108.567 12.82C108.168 12.56 107.674 12.43 107.085 12.43C105.975 12.43 105.039 12.768 104.277 13.444C103.531 14.1027 103.098 15.03 102.977 16.226H110.153ZM129.455 17.604C129.455 19.58 128.9 21.1747 127.791 22.388C126.699 23.6013 125.182 24.208 123.241 24.208C121.421 24.208 119.93 23.636 118.769 22.492C117.607 21.348 117.027 19.7273 117.027 17.63C117.027 16.7287 117.148 15.8793 117.391 15.082C117.651 14.2673 118.032 13.548 118.535 12.924C119.055 12.3173 119.696 11.832 120.459 11.468C121.239 11.104 122.149 10.922 123.189 10.922C125.13 10.922 126.655 11.5373 127.765 12.768C128.891 13.9987 129.455 15.6107 129.455 17.604ZM127.271 17.604C127.271 16.9627 127.193 16.33 127.037 15.706C126.898 15.082 126.664 14.5273 126.335 14.042C126.005 13.5567 125.581 13.1667 125.061 12.872C124.541 12.5773 123.908 12.43 123.163 12.43C122.452 12.43 121.845 12.5773 121.343 12.872C120.84 13.1493 120.424 13.522 120.095 13.99C119.765 14.4753 119.523 15.03 119.367 15.654C119.228 16.278 119.159 16.9367 119.159 17.63C119.159 18.306 119.228 18.9473 119.367 19.554C119.523 20.1607 119.774 20.698 120.121 21.166C120.45 21.634 120.875 22.0067 121.395 22.284C121.915 22.5613 122.539 22.7 123.267 22.7C123.977 22.7 124.584 22.5613 125.087 22.284C125.589 22.0067 126.005 21.6253 126.335 21.14C126.647 20.672 126.881 20.1347 127.037 19.528C127.193 18.904 127.271 18.2627 127.271 17.604Z" fill="#2E2E2E"/>
</svg>
