<svg width="35" height="35" viewBox="0 0 35 35" fill="none" xmlns="http://www.w3.org/2000/svg">
<g clip-path="url(#clip0_163_311)">
<path d="M8.75 1.09375C8.75 0.803669 8.63477 0.52547 8.42965 0.320352C8.22453 0.115234 7.94633 0 7.65625 0C7.36617 0 7.08797 0.115234 6.88285 0.320352C6.67773 0.52547 6.5625 0.803669 6.5625 1.09375V2.1875H4.375C3.21468 2.1875 2.10188 2.64844 1.28141 3.46891C0.460936 4.28938 0 5.40218 0 6.5625L0 8.75H35V6.5625C35 5.40218 34.5391 4.28938 33.7186 3.46891C32.8981 2.64844 31.7853 2.1875 30.625 2.1875H28.4375V1.09375C28.4375 0.803669 28.3223 0.52547 28.1171 0.320352C27.912 0.115234 27.6338 0 27.3438 0C27.0537 0 26.7755 0.115234 26.5704 0.320352C26.3652 0.52547 26.25 0.803669 26.25 1.09375V2.1875H8.75V1.09375ZM35 30.625V10.9375H0V30.625C0 31.7853 0.460936 32.8981 1.28141 33.7186C2.10188 34.5391 3.21468 35 4.375 35H30.625C31.7853 35 32.8981 34.5391 33.7186 33.7186C34.5391 32.8981 35 31.7853 35 30.625ZM23.7431 19.3681L17.1806 25.9306C17.079 26.0325 16.9583 26.1133 16.8254 26.1684C16.6926 26.2236 16.5501 26.252 16.4062 26.252C16.2624 26.252 16.1199 26.2236 15.9871 26.1684C15.8542 26.1133 15.7335 26.0325 15.6319 25.9306L12.3506 22.6494C12.1452 22.444 12.0299 22.1654 12.0299 21.875C12.0299 21.5846 12.1452 21.306 12.3506 21.1006C12.556 20.8952 12.8346 20.7799 13.125 20.7799C13.4154 20.7799 13.694 20.8952 13.8994 21.1006L16.4062 23.6097L22.1944 17.8194C22.3998 17.614 22.6783 17.4986 22.9688 17.4986C23.2592 17.4986 23.5377 17.614 23.7431 17.8194C23.9485 18.0248 24.0639 18.3033 24.0639 18.5938C24.0639 18.8842 23.9485 19.1627 23.7431 19.3681Z" fill="#F8F8F8"/>
</g>
<defs>
<clipPath id="clip0_163_311">
<rect width="35" height="35" fill="white"/>
</clipPath>
</defs>
</svg>
