<svg width="35" height="35" viewBox="0 0 35 35" fill="none" xmlns="http://www.w3.org/2000/svg">
<g clip-path="url(#clip0_163_316)">
<path d="M34.9947 8.93266C34.9947 7.85641 34.9039 6.78453 34.6469 5.73672C34.1853 3.82812 33.097 2.37016 31.4684 1.29937C30.6306 0.7525 29.7086 0.416719 28.7286 0.239531C27.976 0.107863 27.2142 0.0354532 26.4503 0.0229688C26.3934 0.0175 26.3311 0.00546875 26.2677 0H8.73375C8.51172 0.0175 8.28969 0.0284375 8.06766 0.039375C6.97937 0.101719 5.89766 0.215469 4.87172 0.625625C2.92375 1.39453 1.51609 2.73875 0.695781 4.67578C0.411406 5.33094 0.268125 6.02547 0.166406 6.73203C0.0810937 7.30188 0.0351562 7.87719 0.01875 8.4525C0.01875 8.49844 0.0078125 8.54328 0.0078125 8.58922V26.4141L0.0417188 27.0298C0.116094 28.2209 0.269219 29.4 0.77125 30.4937C1.71734 32.562 3.30656 33.9227 5.48859 34.5778C6.09781 34.7659 6.73656 34.8512 7.37422 34.9081C8.18359 34.988 8.99188 34.9989 9.80125 34.9989H25.8881C26.6516 34.9989 27.415 34.9475 28.1784 34.8512C29.3805 34.697 30.5081 34.3438 31.5286 33.6722C32.7365 32.8897 33.689 31.7707 34.2684 30.4533C34.5419 29.8375 34.6961 29.1834 34.8098 28.5217C34.975 27.5362 35.0089 26.5388 35.0089 25.5423C35.0034 20.0047 35.0089 14.4681 35.0034 8.93047L34.9947 8.93266ZM25.6289 14.7481V23.077C25.6289 23.6863 25.5436 24.2845 25.2702 24.8369C24.8491 25.6966 24.1655 26.238 23.2478 26.5005C22.7395 26.6461 22.2154 26.7302 21.687 26.7509C21.0225 26.7902 20.3668 26.5838 19.8447 26.1709C19.3225 25.7581 18.9704 25.1677 18.8553 24.512C18.7499 23.9221 18.841 23.314 19.1147 22.7809C19.3883 22.2478 19.8294 21.8193 20.3702 21.5611C20.8372 21.3336 21.3447 21.1969 21.8511 21.0941C22.4034 20.9748 22.9558 20.8666 23.5027 20.7408C23.9073 20.65 24.1688 20.405 24.2486 19.9883C24.2716 19.8975 24.277 19.8002 24.277 19.7094V11.7688C24.2751 11.6781 24.2618 11.5881 24.2377 11.5008C24.1808 11.2788 24.0211 11.1475 23.7936 11.1584C23.5595 11.1694 23.332 11.2098 23.1045 11.2558C21.9933 11.4723 20.8831 11.6944 19.7773 11.9219L14.383 13.0102C14.36 13.0156 14.3316 13.0277 14.3086 13.0277C13.9039 13.1414 13.7617 13.3241 13.7442 13.7452C13.7388 13.8075 13.7442 13.8709 13.7442 13.9333C13.7388 17.7275 13.7442 21.5217 13.7387 25.3148C13.7387 25.9306 13.6698 26.5344 13.4259 27.1031C13.0212 28.0372 12.3038 28.6245 11.3358 28.9034C10.8241 29.0524 10.2957 29.1365 9.76297 29.1539C8.36734 29.2053 7.20469 28.2767 6.96625 26.9041C6.76062 25.7195 7.30203 24.4431 8.64625 23.8733C9.17016 23.6567 9.71156 23.5375 10.2639 23.4237L11.5173 23.1678C12.0752 23.0486 12.3661 22.6953 12.3945 22.1255V8.95453C12.3945 8.77188 12.4175 8.59031 12.4569 8.41313C12.5597 7.9975 12.8561 7.75797 13.2542 7.66062C13.625 7.56328 14.0067 7.49547 14.3819 7.41563C15.4527 7.19906 16.518 6.9825 17.5887 6.77141L20.8984 6.09875C21.8784 5.90516 22.8519 5.70609 23.8319 5.5125C24.1512 5.45016 24.4761 5.38125 24.7998 5.35828C25.2494 5.31891 25.5633 5.60328 25.6092 6.05937C25.6202 6.16766 25.6267 6.27594 25.6267 6.38422V14.7416L25.6289 14.7481Z" fill="white"/>
</g>
<defs>
<clipPath id="clip0_163_316">
<rect width="35" height="35" fill="white"/>
</clipPath>
</defs>
</svg>
