<svg width="96" height="37" viewBox="0 0 96 37" fill="none" xmlns="http://www.w3.org/2000/svg">
<g filter="url(#filter0_d_278_22)">
<rect x="3" y="1" width="90" height="31" rx="5" fill="white"/>
<rect x="3.5" y="1.5" width="89" height="30" rx="4.5" stroke="black"/>
</g>
<path d="M48.407 21.13C47.6097 21.13 46.9467 20.9827 46.418 20.688C45.898 20.3933 45.5037 19.9817 45.235 19.453C44.9663 18.9243 44.819 18.309 44.793 17.607C44.7843 17.2517 44.78 16.8703 44.78 16.463C44.78 16.0557 44.7843 15.6657 44.793 15.293C44.819 14.591 44.9663 13.9757 45.235 13.447C45.5037 12.9183 45.898 12.5067 46.418 12.212C46.9467 11.9173 47.6097 11.77 48.407 11.77C49.005 11.77 49.5293 11.8523 49.98 12.017C50.4307 12.1817 50.8033 12.4027 51.098 12.68C51.4013 12.9573 51.631 13.2693 51.787 13.616C51.943 13.954 52.0297 14.305 52.047 14.669C52.0557 14.747 52.0297 14.812 51.969 14.864C51.917 14.916 51.852 14.942 51.774 14.942H51.059C50.981 14.942 50.9117 14.9203 50.851 14.877C50.799 14.8337 50.76 14.7557 50.734 14.643C50.5867 13.967 50.3093 13.5033 49.902 13.252C49.5033 13.0007 49.0007 12.875 48.394 12.875C47.7007 12.875 47.1503 13.0743 46.743 13.473C46.3357 13.863 46.1147 14.4913 46.08 15.358C46.054 16.0687 46.054 16.7967 46.08 17.542C46.1147 18.4087 46.3357 19.0413 46.743 19.44C47.1503 19.83 47.7007 20.025 48.394 20.025C49.0007 20.025 49.5033 19.8993 49.902 19.648C50.3093 19.3967 50.5867 18.933 50.734 18.257C50.76 18.1443 50.799 18.0663 50.851 18.023C50.9117 17.9797 50.981 17.958 51.059 17.958H51.774C51.852 17.958 51.917 17.984 51.969 18.036C52.0297 18.088 52.0557 18.153 52.047 18.231C52.0297 18.595 51.943 18.9503 51.787 19.297C51.631 19.635 51.4013 19.9427 51.098 20.22C50.8033 20.4973 50.4307 20.7183 49.98 20.883C49.5293 21.0477 49.005 21.13 48.407 21.13ZM56.1292 21.13C55.4705 21.13 54.9202 21.0043 54.4782 20.753C54.0362 20.5017 53.6982 20.155 53.4642 19.713C53.2302 19.2623 53.1002 18.751 53.0742 18.179C53.0655 18.0317 53.0612 17.8453 53.0612 17.62C53.0612 17.386 53.0655 17.1997 53.0742 17.061C53.1002 16.4803 53.2302 15.969 53.4642 15.527C53.7069 15.085 54.0492 14.7383 54.4912 14.487C54.9332 14.2357 55.4792 14.11 56.1292 14.11C56.7792 14.11 57.3252 14.2357 57.7672 14.487C58.2092 14.7383 58.5472 15.085 58.7812 15.527C59.0239 15.969 59.1582 16.4803 59.1842 17.061C59.1929 17.1997 59.1972 17.386 59.1972 17.62C59.1972 17.8453 59.1929 18.0317 59.1842 18.179C59.1582 18.751 59.0282 19.2623 58.7942 19.713C58.5602 20.155 58.2222 20.5017 57.7802 20.753C57.3382 21.0043 56.7879 21.13 56.1292 21.13ZM56.1292 20.129C56.6665 20.129 57.0955 19.96 57.4162 19.622C57.7369 19.2753 57.9102 18.7727 57.9362 18.114C57.9449 17.984 57.9492 17.8193 57.9492 17.62C57.9492 17.4207 57.9449 17.256 57.9362 17.126C57.9102 16.4673 57.7369 15.969 57.4162 15.631C57.0955 15.2843 56.6665 15.111 56.1292 15.111C55.5919 15.111 55.1585 15.2843 54.8292 15.631C54.5085 15.969 54.3395 16.4673 54.3222 17.126C54.3135 17.256 54.3092 17.4207 54.3092 17.62C54.3092 17.8193 54.3135 17.984 54.3222 18.114C54.3395 18.7727 54.5085 19.2753 54.8292 19.622C55.1585 19.96 55.5919 20.129 56.1292 20.129ZM60.877 23.47C60.7904 23.47 60.7167 23.4397 60.656 23.379C60.604 23.327 60.578 23.2577 60.578 23.171V14.539C60.578 14.4523 60.604 14.383 60.656 14.331C60.7167 14.2703 60.7904 14.24 60.877 14.24H61.475C61.5617 14.24 61.631 14.2703 61.683 14.331C61.7437 14.383 61.774 14.4523 61.774 14.539V15.111C61.982 14.825 62.2594 14.5867 62.606 14.396C62.9527 14.2053 63.386 14.11 63.906 14.11C64.3914 14.11 64.803 14.1923 65.141 14.357C65.4877 14.5217 65.7694 14.747 65.986 15.033C66.2114 15.319 66.3804 15.644 66.493 16.008C66.6057 16.372 66.6664 16.762 66.675 17.178C66.6837 17.3167 66.688 17.464 66.688 17.62C66.688 17.776 66.6837 17.9233 66.675 18.062C66.6664 18.4693 66.6057 18.8593 66.493 19.232C66.3804 19.596 66.2114 19.921 65.986 20.207C65.7694 20.4843 65.4877 20.7097 65.141 20.883C64.803 21.0477 64.3914 21.13 63.906 21.13C63.4034 21.13 62.9787 21.039 62.632 20.857C62.294 20.6663 62.0167 20.4323 61.8 20.155V23.171C61.8 23.2577 61.774 23.327 61.722 23.379C61.67 23.4397 61.5964 23.47 61.501 23.47H60.877ZM63.633 20.077C64.0837 20.077 64.4347 19.9817 64.686 19.791C64.946 19.5917 65.1324 19.336 65.245 19.024C65.3577 18.7033 65.4227 18.361 65.44 17.997C65.4487 17.7457 65.4487 17.4943 65.44 17.243C65.4227 16.879 65.3577 16.541 65.245 16.229C65.1324 15.9083 64.946 15.6527 64.686 15.462C64.4347 15.2627 64.0837 15.163 63.633 15.163C63.2084 15.163 62.8617 15.2627 62.593 15.462C62.333 15.6613 62.138 15.917 62.008 16.229C61.8867 16.5323 61.8174 16.8443 61.8 17.165C61.7914 17.3037 61.787 17.4683 61.787 17.659C61.787 17.8497 61.7914 18.0187 61.8 18.166C61.8087 18.4693 61.878 18.7683 62.008 19.063C62.1467 19.3577 62.3504 19.6003 62.619 19.791C62.8877 19.9817 63.2257 20.077 63.633 20.077ZM68.3482 21C68.2615 21 68.1879 20.974 68.1272 20.922C68.0752 20.8613 68.0492 20.7877 68.0492 20.701V14.539C68.0492 14.4523 68.0752 14.383 68.1272 14.331C68.1879 14.2703 68.2615 14.24 68.3482 14.24H68.9722C69.0589 14.24 69.1282 14.2703 69.1802 14.331C69.2322 14.383 69.2582 14.4523 69.2582 14.539V20.701C69.2582 20.7877 69.2322 20.8613 69.1802 20.922C69.1282 20.974 69.0589 21 68.9722 21H68.3482ZM68.2442 12.979C68.1575 12.979 68.0839 12.953 68.0232 12.901C67.9712 12.8403 67.9452 12.7667 67.9452 12.68V11.978C67.9452 11.8913 67.9712 11.822 68.0232 11.77C68.0839 11.7093 68.1575 11.679 68.2442 11.679H69.0632C69.1499 11.679 69.2192 11.7093 69.2712 11.77C69.3319 11.822 69.3622 11.8913 69.3622 11.978V12.68C69.3622 12.7667 69.3319 12.8403 69.2712 12.901C69.2192 12.953 69.1499 12.979 69.0632 12.979H68.2442ZM73.654 21.13C72.7613 21.13 72.0507 20.857 71.522 20.311C70.9933 19.7563 70.703 19.0023 70.651 18.049C70.6423 17.9363 70.638 17.7933 70.638 17.62C70.638 17.438 70.6423 17.2907 70.651 17.178C70.6857 16.5627 70.8287 16.0253 71.08 15.566C71.3313 15.098 71.6737 14.7383 72.107 14.487C72.549 14.2357 73.0647 14.11 73.654 14.11C74.3127 14.11 74.863 14.2487 75.305 14.526C75.7557 14.8033 76.098 15.1977 76.332 15.709C76.566 16.2203 76.683 16.8183 76.683 17.503V17.724C76.683 17.8193 76.6527 17.893 76.592 17.945C76.54 17.997 76.4707 18.023 76.384 18.023H71.886C71.886 18.0317 71.886 18.049 71.886 18.075C71.886 18.101 71.886 18.1227 71.886 18.14C71.9033 18.4953 71.9813 18.829 72.12 19.141C72.2587 19.4443 72.458 19.6913 72.718 19.882C72.978 20.0727 73.29 20.168 73.654 20.168C73.966 20.168 74.226 20.1203 74.434 20.025C74.642 19.9297 74.811 19.8257 74.941 19.713C75.071 19.5917 75.1577 19.5007 75.201 19.44C75.279 19.3273 75.3397 19.2623 75.383 19.245C75.4263 19.219 75.4957 19.206 75.591 19.206H76.215C76.3017 19.206 76.371 19.232 76.423 19.284C76.4837 19.3273 76.5097 19.3923 76.501 19.479C76.4923 19.609 76.423 19.7693 76.293 19.96C76.163 20.142 75.9767 20.324 75.734 20.506C75.4913 20.688 75.1967 20.8397 74.85 20.961C74.5033 21.0737 74.1047 21.13 73.654 21.13ZM71.886 17.126H75.448V17.087C75.448 16.697 75.3743 16.3503 75.227 16.047C75.0883 15.7437 74.8847 15.5053 74.616 15.332C74.3473 15.15 74.0267 15.059 73.654 15.059C73.2813 15.059 72.9607 15.15 72.692 15.332C72.432 15.5053 72.2327 15.7437 72.094 16.047C71.9553 16.3503 71.886 16.697 71.886 17.087V17.126ZM78.2764 21C78.1898 21 78.1161 20.974 78.0554 20.922C78.0034 20.8613 77.9774 20.7877 77.9774 20.701V14.552C77.9774 14.4653 78.0034 14.3917 78.0554 14.331C78.1161 14.2703 78.1898 14.24 78.2764 14.24H78.8744C78.9611 14.24 79.0348 14.2703 79.0954 14.331C79.1561 14.3917 79.1864 14.4653 79.1864 14.552V15.124C79.3598 14.8293 79.5981 14.6083 79.9014 14.461C80.2048 14.3137 80.5688 14.24 80.9934 14.24H81.5134C81.6001 14.24 81.6694 14.2703 81.7214 14.331C81.7734 14.383 81.7994 14.4523 81.7994 14.539V15.072C81.7994 15.1587 81.7734 15.228 81.7214 15.28C81.6694 15.332 81.6001 15.358 81.5134 15.358H80.7334C80.2654 15.358 79.8971 15.4967 79.6284 15.774C79.3598 16.0427 79.2254 16.411 79.2254 16.879V20.701C79.2254 20.7877 79.1951 20.8613 79.1344 20.922C79.0738 20.974 79.0001 21 78.9134 21H78.2764Z" fill="black"/>
<path d="M33.3125 5.5625H20.2266C20.1191 5.5625 20.0312 5.65039 20.0312 5.75781V7.125C20.0312 7.23242 20.1191 7.32031 20.2266 7.32031H32.3359V24.1172C32.3359 24.2246 32.4238 24.3125 32.5312 24.3125H33.8984C34.0059 24.3125 34.0938 24.2246 34.0938 24.1172V6.34375C34.0938 5.91162 33.7446 5.5625 33.3125 5.5625ZM30.1875 8.6875H17.6875C17.2554 8.6875 16.9062 9.03662 16.9062 9.46875V22.4253C16.9062 22.6328 16.9893 22.8306 17.1357 22.9771L21.3667 27.208C21.4204 27.2617 21.4814 27.3057 21.5474 27.3423V27.3887H21.6499C21.7354 27.4204 21.8257 27.4375 21.9185 27.4375H30.1875C30.6196 27.4375 30.9688 27.0884 30.9688 26.6562V9.46875C30.9688 9.03662 30.6196 8.6875 30.1875 8.6875ZM22.3262 25.875H22.3213L18.6641 22.2178V22.2129H22.3262V25.875Z" fill="black"/>
<defs>
<filter id="filter0_d_278_22" x="0" y="0" width="96" height="37" filterUnits="userSpaceOnUse" color-interpolation-filters="sRGB">
<feFlood flood-opacity="0" result="BackgroundImageFix"/>
<feColorMatrix in="SourceAlpha" type="matrix" values="0 0 0 0 0 0 0 0 0 0 0 0 0 0 0 0 0 0 127 0" result="hardAlpha"/>
<feOffset dy="2"/>
<feGaussianBlur stdDeviation="1.5"/>
<feComposite in2="hardAlpha" operator="out"/>
<feColorMatrix type="matrix" values="0 0 0 0 0 0 0 0 0 0 0 0 0 0 0 0 0 0 0.25 0"/>
<feBlend mode="normal" in2="BackgroundImageFix" result="effect1_dropShadow_278_22"/>
<feBlend mode="normal" in="SourceGraphic" in2="effect1_dropShadow_278_22" result="shape"/>
</filter>
</defs>
</svg>
