<svg width="34" height="36" viewBox="0 0 34 36" fill="none" xmlns="http://www.w3.org/2000/svg">
<path d="M20.1644 35.5H13.7944C13.3953 35.5001 13.0081 35.3637 12.6972 35.1135C12.3862 34.8633 12.1701 34.5144 12.0847 34.1245L11.3724 30.8275C10.4223 30.4112 9.52132 29.8906 8.68616 29.2753L5.47141 30.299C5.0909 30.4203 4.68032 30.4079 4.30787 30.2637C3.93542 30.1195 3.6235 29.8522 3.42391 29.5063L0.231912 23.992C0.0344162 23.6457 -0.0397188 23.2427 0.021636 22.8488C0.0829908 22.4549 0.276202 22.0935 0.569662 21.8238L3.06341 19.5487C2.95001 18.5182 2.95001 17.4783 3.06341 16.4478L0.569662 14.178C0.275787 13.9081 0.0823123 13.5464 0.0209476 13.1521C-0.0404172 12.7579 0.0339681 12.3544 0.231912 12.008L3.41691 6.49025C3.6165 6.1443 3.92842 5.87703 4.30087 5.73283C4.67332 5.58862 5.0839 5.57616 5.46441 5.6975L8.67916 6.72125C9.10616 6.40625 9.55066 6.11225 10.0092 5.84625C10.4519 5.59775 10.9069 5.372 11.3724 5.17075L12.0864 1.87725C12.1714 1.48735 12.3871 1.1382 12.6978 0.88771C13.0084 0.637217 13.3953 0.50042 13.7944 0.5H20.1644C20.5635 0.50042 20.9504 0.637217 21.2611 0.88771C21.5717 1.1382 21.7874 1.48735 21.8724 1.87725L22.5934 5.1725C23.5423 5.59122 24.443 6.11168 25.2797 6.72475L28.4962 5.701C28.8764 5.5801 29.2866 5.5928 29.6587 5.73698C30.0308 5.88116 30.3424 6.14818 30.5419 6.49375L33.7269 12.0115C34.1329 12.7238 33.9929 13.625 33.3892 14.1798L30.8954 16.4547C31.0088 17.4853 31.0088 18.5252 30.8954 19.5557L33.3892 21.8307C33.9929 22.3873 34.1329 23.2868 33.7269 23.999L30.5419 29.5167C30.3423 29.8627 30.0304 30.13 29.6579 30.2742C29.2855 30.4184 28.8749 30.4308 28.4944 30.3095L25.2797 29.2857C24.4451 29.9006 23.5448 30.4206 22.5952 30.8362L21.8724 34.1245C21.7871 34.5141 21.5712 34.8628 21.2606 35.113C20.95 35.3631 20.5632 35.4997 20.1644 35.5ZM16.9724 11C15.1159 11 13.3354 11.7375 12.0227 13.0503C10.7099 14.363 9.97241 16.1435 9.97241 18C9.97241 19.8565 10.7099 21.637 12.0227 22.9497C13.3354 24.2625 15.1159 25 16.9724 25C18.8289 25 20.6094 24.2625 21.9222 22.9497C23.2349 21.637 23.9724 19.8565 23.9724 18C23.9724 16.1435 23.2349 14.363 21.9222 13.0503C20.6094 11.7375 18.8289 11 16.9724 11Z" fill="#F8F8F8"/>
</svg>
